G04 #@! TF.GenerationSoftware,KiCad,Pcbnew,8.0.7*
G04 #@! TF.CreationDate,2024-12-21T19:49:35+01:00*
G04 #@! TF.ProjectId,mint36tt_rev02_R,6d696e74-3336-4747-945f-72657630325f,0.2*
G04 #@! TF.SameCoordinates,Original*
G04 #@! TF.FileFunction,Paste,Bot*
G04 #@! TF.FilePolarity,Positive*
%FSLAX46Y46*%
G04 Gerber Fmt 4.6, Leading zero omitted, Abs format (unit mm)*
G04 Created by KiCad (PCBNEW 8.0.7) date 2024-12-21 19:49:35*
%MOMM*%
%LPD*%
G01*
G04 APERTURE LIST*
G04 Aperture macros list*
%AMRotRect*
0 Rectangle, with rotation*
0 The origin of the aperture is its center*
0 $1 length*
0 $2 width*
0 $3 Rotation angle, in degrees counterclockwise*
0 Add horizontal line*
21,1,$1,$2,0,0,$3*%
G04 Aperture macros list end*
%ADD10RotRect,2.600000X2.600000X270.000001*%
%ADD11RotRect,2.600000X2.600000X342.000000*%
%ADD12R,0.900000X1.200000*%
%ADD13RotRect,0.900000X1.200000X357.000000*%
%ADD14RotRect,2.600000X2.600000X352.000000*%
%ADD15RotRect,0.900000X1.200000X342.000000*%
%ADD16RotRect,2.600000X2.600000X357.000000*%
%ADD17R,2.600000X2.600000*%
%ADD18RotRect,0.900000X1.200000X352.000000*%
%ADD19RotRect,0.900000X1.200000X270.000001*%
G04 APERTURE END LIST*
D10*
X120725000Y-118300000D03*
X118525000Y-129850000D03*
D11*
X183666875Y-103307386D03*
X193971740Y-108968857D03*
D12*
X116425000Y-103325000D03*
X113125000Y-103325000D03*
D13*
X152397385Y-82879569D03*
X149101907Y-82706861D03*
D14*
X164360351Y-100017465D03*
X175491766Y-103803504D03*
D15*
X179868312Y-130935796D03*
X176729826Y-129916040D03*
D12*
X133925000Y-103325000D03*
X130625000Y-103325000D03*
D10*
X103225000Y-120675000D03*
X101025000Y-132225000D03*
D16*
X147083998Y-90161468D03*
X158503030Y-92962933D03*
D14*
X169231409Y-65358083D03*
X180362824Y-69144122D03*
D17*
X129000000Y-58375000D03*
X140550000Y-60575000D03*
D10*
X138225000Y-118300000D03*
X136025000Y-129850000D03*
D17*
X111500000Y-75875000D03*
X123050000Y-78075000D03*
D18*
X167852648Y-110556061D03*
X164584764Y-110096789D03*
D16*
X148915756Y-55209434D03*
X160334788Y-58010899D03*
D17*
X129000000Y-93375000D03*
X140550000Y-95575000D03*
D11*
X189074673Y-86663896D03*
X199379538Y-92325367D03*
D14*
X166795880Y-82687774D03*
X177927295Y-86473813D03*
D11*
X178259078Y-119950875D03*
X188563943Y-125612346D03*
D12*
X133925000Y-85825000D03*
X130625000Y-85825000D03*
X116425000Y-85825000D03*
X113125000Y-85825000D03*
D19*
X110775000Y-123225000D03*
X110775000Y-119925000D03*
D17*
X111500000Y-93375000D03*
X123050000Y-95575000D03*
D18*
X170288177Y-93226370D03*
X167020293Y-92767098D03*
X172723707Y-75896678D03*
X169455823Y-75437406D03*
D12*
X133925000Y-68325000D03*
X130625000Y-68325000D03*
D13*
X151481506Y-100355586D03*
X148186028Y-100182878D03*
X153313265Y-65403552D03*
X150017787Y-65230844D03*
D16*
X147999877Y-72685451D03*
X159418909Y-75486916D03*
D17*
X129000000Y-75875000D03*
X140550000Y-78075000D03*
D12*
X116425000Y-68325000D03*
X113125000Y-68325000D03*
D19*
X128275000Y-123225000D03*
X128275000Y-119925000D03*
D15*
X185276109Y-114292307D03*
X182137623Y-113272551D03*
D17*
X111500000Y-58375000D03*
X123050000Y-60575000D03*
D19*
X93275000Y-125600000D03*
X93275000Y-122300000D03*
D15*
X190683907Y-97648818D03*
X187545421Y-96629062D03*
M02*
