G04 #@! TF.GenerationSoftware,KiCad,Pcbnew,8.0.7*
G04 #@! TF.CreationDate,2024-12-21T19:49:35+01:00*
G04 #@! TF.ProjectId,mint36tt_rev02_R,6d696e74-3336-4747-945f-72657630325f,0.2*
G04 #@! TF.SameCoordinates,Original*
G04 #@! TF.FileFunction,Soldermask,Top*
G04 #@! TF.FilePolarity,Negative*
%FSLAX46Y46*%
G04 Gerber Fmt 4.6, Leading zero omitted, Abs format (unit mm)*
G04 Created by KiCad (PCBNEW 8.0.7) date 2024-12-21 19:49:35*
%MOMM*%
%LPD*%
G01*
G04 APERTURE LIST*
%ADD10C,1.701800*%
%ADD11C,3.000000*%
%ADD12C,3.429000*%
%ADD13C,1.524000*%
%ADD14C,1.397000*%
%ADD15C,1.200000*%
%ADD16O,1.700000X2.500000*%
%ADD17C,0.900000*%
%ADD18R,0.700000X1.000000*%
%ADD19R,1.000000X2.800000*%
G04 APERTURE END LIST*
D10*
X114775000Y-116075000D03*
D11*
X120725000Y-121575000D03*
X120725000Y-121575000D03*
D12*
X114775000Y-121575000D03*
D11*
X118525000Y-126575000D03*
D10*
X114775000Y-127075000D03*
X179712123Y-108278610D03*
D11*
X186781585Y-104319417D03*
X186781585Y-104319417D03*
D12*
X184942934Y-109978203D03*
D11*
X190857030Y-107956826D03*
D10*
X190173745Y-111677796D03*
X161328925Y-105599900D03*
D11*
X167603479Y-100473257D03*
X167603479Y-100473257D03*
D12*
X166775399Y-106365352D03*
D11*
X172248637Y-103347712D03*
D10*
X172221873Y-107130804D03*
X97275000Y-118450000D03*
D11*
X103225000Y-123950000D03*
X103225000Y-123950000D03*
D12*
X97275000Y-123950000D03*
D11*
X101025000Y-128950000D03*
D10*
X97275000Y-129450000D03*
X144550649Y-95986866D03*
D11*
X150354510Y-90332868D03*
X150354510Y-90332868D03*
D12*
X150043111Y-96274714D03*
D11*
X155232519Y-92791533D03*
D10*
X155535573Y-96562562D03*
D13*
X184855000Y-58905000D03*
X184855000Y-61445000D03*
X184855000Y-63985000D03*
X184855000Y-66525000D03*
X184855000Y-69065000D03*
X184855000Y-71605000D03*
X184855000Y-74145000D03*
X200095000Y-74145000D03*
X200095000Y-71605000D03*
X200095000Y-69065000D03*
X200095000Y-66525000D03*
X200095000Y-63985000D03*
X200095000Y-61445000D03*
X200095000Y-58905000D03*
D14*
X191205000Y-57953000D03*
X193745000Y-57953000D03*
X191205000Y-60493000D03*
X193745000Y-60493000D03*
X188030000Y-66208000D03*
X188030000Y-64303000D03*
D15*
X100275000Y-57325000D03*
X100275000Y-64325000D03*
D16*
X98175000Y-67625000D03*
X102375000Y-59125000D03*
X102375000Y-62125000D03*
X102375000Y-66125000D03*
D10*
X166199983Y-70940518D03*
D11*
X172474537Y-65813875D03*
X172474537Y-65813875D03*
D12*
X171646457Y-71705970D03*
D11*
X177119695Y-68688330D03*
D10*
X177092931Y-72471422D03*
X126775000Y-64325000D03*
D11*
X132275000Y-58375000D03*
X132275000Y-58375000D03*
D12*
X132275000Y-64325000D03*
D11*
X137275000Y-60575000D03*
D10*
X137775000Y-64325000D03*
X132275000Y-116075000D03*
D11*
X138225000Y-121575000D03*
X138225000Y-121575000D03*
D12*
X132275000Y-121575000D03*
D11*
X136025000Y-126575000D03*
D10*
X132275000Y-127075000D03*
X109275000Y-81825000D03*
D11*
X114775000Y-75875000D03*
X114775000Y-75875000D03*
D12*
X114775000Y-81825000D03*
D11*
X119775000Y-78075000D03*
D10*
X120275000Y-81825000D03*
D13*
X165275000Y-123525000D03*
X165275000Y-120125000D03*
D10*
X146382407Y-61034832D03*
D11*
X152186268Y-55380834D03*
X152186268Y-55380834D03*
D12*
X151874869Y-61322680D03*
D11*
X157064277Y-57839499D03*
D10*
X157367331Y-61610528D03*
X126775000Y-99325000D03*
D11*
X132275000Y-93375000D03*
X132275000Y-93375000D03*
D12*
X132275000Y-99325000D03*
D11*
X137275000Y-95575000D03*
D10*
X137775000Y-99325000D03*
X185119921Y-91635120D03*
D11*
X192189383Y-87675927D03*
X192189383Y-87675927D03*
D12*
X190350732Y-93334713D03*
D11*
X196264828Y-91313336D03*
D10*
X195581543Y-95034306D03*
X163764454Y-88270209D03*
D11*
X170039008Y-83143566D03*
X170039008Y-83143566D03*
D12*
X169210928Y-89035661D03*
D11*
X174684166Y-86018021D03*
D10*
X174657402Y-89801113D03*
X174304326Y-124922099D03*
D11*
X181373788Y-120962906D03*
X181373788Y-120962906D03*
D12*
X179535137Y-126621692D03*
D11*
X185449233Y-124600315D03*
D10*
X184765948Y-128321285D03*
X109275000Y-99325000D03*
D11*
X114775000Y-93375000D03*
X114775000Y-93375000D03*
D12*
X114775000Y-99325000D03*
D11*
X119775000Y-95575000D03*
D10*
X120275000Y-99325000D03*
D17*
X175900000Y-57530000D03*
X178900000Y-57580000D03*
D18*
X179650000Y-59380000D03*
X176650000Y-59380000D03*
X175150000Y-59380000D03*
D19*
X181250000Y-57480000D03*
X173300000Y-57480000D03*
D10*
X145466528Y-78510849D03*
D11*
X151270389Y-72856851D03*
X151270389Y-72856851D03*
D12*
X150958990Y-78798697D03*
D11*
X156148398Y-75315516D03*
D10*
X156451452Y-79086545D03*
X126775000Y-81825000D03*
D11*
X132275000Y-75875000D03*
X132275000Y-75875000D03*
D12*
X132275000Y-81825000D03*
D11*
X137275000Y-78075000D03*
D10*
X137775000Y-81825000D03*
X109275000Y-64325000D03*
D11*
X114775000Y-58375000D03*
X114775000Y-58375000D03*
D12*
X114775000Y-64325000D03*
D11*
X119775000Y-60575000D03*
D10*
X120275000Y-64325000D03*
M02*
