M48
; DRILL file {KiCad 8.0.7} date 2024-12-21T19:49:39+0100
; FORMAT={-:-/ absolute / metric / decimal}
; #@! TF.CreationDate,2024-12-21T19:49:39+01:00
; #@! TF.GenerationSoftware,Kicad,Pcbnew,8.0.7
; #@! TF.FileFunction,NonPlated,1,2,NPTH
FMAT,2
METRIC
; #@! TA.AperFunction,NonPlated,NPTH,ComponentDrill
T1C0.900
; #@! TA.AperFunction,NonPlated,NPTH,ComponentDrill
T2C1.200
; #@! TA.AperFunction,NonPlated,NPTH,ComponentDrill
T3C1.702
; #@! TA.AperFunction,NonPlated,NPTH,ComponentDrill
T4C3.000
; #@! TA.AperFunction,NonPlated,NPTH,ComponentDrill
T5C3.429
%
G90
G05
T1
X175.9Y-57.53
X178.9Y-57.58
T2
X100.275Y-57.325
X100.275Y-64.325
T3
X97.275Y-118.45
X97.275Y-129.45
X109.275Y-64.325
X109.275Y-81.825
X109.275Y-99.325
X114.775Y-116.075
X114.775Y-127.075
X120.275Y-64.325
X120.275Y-81.825
X120.275Y-99.325
X126.775Y-64.325
X126.775Y-81.825
X126.775Y-99.325
X132.275Y-116.075
X132.275Y-127.075
X137.775Y-64.325
X137.775Y-81.825
X137.775Y-99.325
X144.551Y-95.987
X145.467Y-78.511
X146.382Y-61.035
X155.536Y-96.563
X156.451Y-79.087
X157.367Y-61.611
X161.329Y-105.6
X163.764Y-88.27
X166.2Y-70.941
X172.222Y-107.131
X174.304Y-124.922
X174.657Y-89.801
X177.093Y-72.471
X179.712Y-108.279
X184.766Y-128.321
X185.12Y-91.635
X190.174Y-111.678
X195.582Y-95.034
T4
X101.025Y-128.95
X103.225Y-123.95
X103.225Y-123.95
X114.775Y-58.375
X114.775Y-58.375
X114.775Y-75.875
X114.775Y-75.875
X114.775Y-93.375
X114.775Y-93.375
X118.525Y-126.575
X119.775Y-60.575
X119.775Y-78.075
X119.775Y-95.575
X120.725Y-121.575
X120.725Y-121.575
X132.275Y-58.375
X132.275Y-58.375
X132.275Y-75.875
X132.275Y-75.875
X132.275Y-93.375
X132.275Y-93.375
X136.025Y-126.575
X137.275Y-60.575
X137.275Y-78.075
X137.275Y-95.575
X138.225Y-121.575
X138.225Y-121.575
X150.355Y-90.333
X150.355Y-90.333
X151.27Y-72.857
X151.27Y-72.857
X152.186Y-55.381
X152.186Y-55.381
X155.233Y-92.792
X156.148Y-75.316
X157.064Y-57.839
X167.603Y-100.473
X167.603Y-100.473
X170.039Y-83.144
X170.039Y-83.144
X172.249Y-103.348
X172.475Y-65.814
X172.475Y-65.814
X174.684Y-86.018
X177.12Y-68.688
X181.374Y-120.963
X181.374Y-120.963
X185.449Y-124.6
X186.782Y-104.319
X186.782Y-104.319
X190.857Y-107.957
X192.189Y-87.676
X192.189Y-87.676
X196.265Y-91.313
T5
X97.275Y-123.95
X114.775Y-64.325
X114.775Y-81.825
X114.775Y-99.325
X114.775Y-121.575
X132.275Y-64.325
X132.275Y-81.825
X132.275Y-99.325
X132.275Y-121.575
X150.043Y-96.275
X150.959Y-78.799
X151.875Y-61.323
X166.775Y-106.365
X169.211Y-89.036
X171.646Y-71.706
X179.535Y-126.622
X184.943Y-109.978
X190.351Y-93.335
M30
