%TF.GenerationSoftware,KiCad,Pcbnew,8.0.7*%
%TF.CreationDate,2024-12-21T19:49:39+01:00*%
%TF.ProjectId,mint36tt_rev02_R,6d696e74-3336-4747-945f-72657630325f,0.2*%
%TF.SameCoordinates,Original*%
%TF.FileFunction,Drillmap*%
%TF.FilePolarity,Positive*%
%FSLAX45Y45*%
G04 Gerber Fmt 4.5, Leading zero omitted, Abs format (unit mm)*
G04 Created by KiCad (PCBNEW 8.0.7) date 2024-12-21 19:49:39*
%MOMM*%
%LPD*%
G01*
G04 APERTURE LIST*
%ADD10C,0.150000*%
%ADD11C,0.200000*%
%ADD12C,0.120000*%
%ADD13C,0.100000*%
%ADD14C,0.101600*%
G04 APERTURE END LIST*
D10*
X16056928Y-5592500D02*
X20147500Y-5592500D01*
X17352142Y-13350000D02*
X9377500Y-13350000D01*
D11*
X9737500Y-10682500D02*
G75*
G02*
X9417500Y-10682500I-160000J0D01*
G01*
X9417500Y-10682500D02*
G75*
G02*
X9737500Y-10682500I160000J0D01*
G01*
D10*
X8877500Y-13350000D02*
X8877500Y-11462500D01*
X8877500Y-11462500D02*
X9377500Y-11462500D01*
X18492827Y-13720631D02*
X17352142Y-13350000D01*
X20147500Y-13350000D02*
X18613252Y-13350000D01*
X16070298Y-5337381D02*
X16056928Y-5592500D01*
X14392600Y-5249457D02*
X16070298Y-5337381D01*
X9377500Y-13350000D02*
X8877500Y-13350000D01*
X18613252Y-13350000D02*
X18492827Y-13720631D01*
D11*
X14687500Y-11182500D02*
G75*
G02*
X14367500Y-11182500I-160000J0D01*
G01*
X14367500Y-11182500D02*
G75*
G02*
X14687500Y-11182500I160000J0D01*
G01*
D10*
X9377500Y-11462500D02*
X9377500Y-5592500D01*
D11*
X9737500Y-7182500D02*
G75*
G02*
X9417500Y-7182500I-160000J0D01*
G01*
X9417500Y-7182500D02*
G75*
G02*
X9737500Y-7182500I160000J0D01*
G01*
X20087500Y-13132500D02*
G75*
G02*
X19767500Y-13132500I-160000J0D01*
G01*
X19767500Y-13132500D02*
G75*
G02*
X20087500Y-13132500I160000J0D01*
G01*
D10*
X9377500Y-5592500D02*
X14374622Y-5592500D01*
D11*
X16987500Y-5782500D02*
G75*
G02*
X16667500Y-5782500I-160000J0D01*
G01*
X16667500Y-5782500D02*
G75*
G02*
X16987500Y-5782500I160000J0D01*
G01*
D10*
X14374622Y-5592500D02*
X14392600Y-5249457D01*
X20147500Y-11462500D02*
X20147500Y-13350000D01*
X20147500Y-5592500D02*
X20147500Y-11462500D01*
D12*
X18777600Y-6577620D02*
X18777600Y-6473480D01*
X18846180Y-6404900D02*
X19006200Y-6404900D01*
X19006200Y-6646200D02*
X18846180Y-6646200D01*
X19044300Y-6443000D02*
X19044300Y-6608100D01*
X19095100Y-6006120D02*
X19095100Y-5838480D01*
X19163680Y-5769900D02*
X19331320Y-5769900D01*
X19163680Y-6074700D02*
X19331320Y-6074700D01*
X19399900Y-6006120D02*
X19399900Y-5838480D01*
X18777600Y-6577620D02*
G75*
G02*
X18846180Y-6646200I24775J-43805D01*
G01*
X18846180Y-6404900D02*
G75*
G02*
X18777600Y-6473480I-43805J-24775D01*
G01*
X19006200Y-6404900D02*
G75*
G02*
X19044300Y-6443000I0J-38100D01*
G01*
X19044300Y-6608100D02*
G75*
G02*
X19006200Y-6646200I-38100J0D01*
G01*
X19095100Y-6006120D02*
G75*
G02*
X19163680Y-6074700I24775J-43805D01*
G01*
X19163680Y-5769900D02*
G75*
G02*
X19095100Y-5838480I-43805J-24775D01*
G01*
X19331320Y-6074700D02*
G75*
G02*
X19399900Y-6006120I43805J24775D01*
G01*
X19399900Y-5838480D02*
G75*
G02*
X19331320Y-5769900I-24775J43805D01*
G01*
D11*
D13*
X9312500Y-12215000D02*
X9342500Y-12245000D01*
X9342500Y-12215000D02*
X9312500Y-12245000D01*
X10087500Y-13207500D02*
X10117500Y-13237500D01*
X10117500Y-13207500D02*
X10087500Y-13237500D01*
X11062500Y-11977500D02*
X11092500Y-12007500D01*
X11092500Y-11977500D02*
X11062500Y-12007500D01*
X11297500Y-6817500D02*
X11327500Y-6847500D01*
X11327500Y-6817500D02*
X11297500Y-6847500D01*
X11297500Y-8567500D02*
X11327500Y-8597500D01*
X11327500Y-8567500D02*
X11297500Y-8597500D01*
X11297500Y-10317500D02*
X11327500Y-10347500D01*
X11327500Y-10317500D02*
X11297500Y-10347500D01*
X11837500Y-12970000D02*
X11867500Y-13000000D01*
X11867500Y-12970000D02*
X11837500Y-13000000D01*
X12812500Y-11977500D02*
X12842500Y-12007500D01*
X12842500Y-11977500D02*
X12812500Y-12007500D01*
X13047500Y-6817500D02*
X13077500Y-6847500D01*
X13077500Y-6817500D02*
X13047500Y-6847500D01*
X13047500Y-8567500D02*
X13077500Y-8597500D01*
X13077500Y-8567500D02*
X13047500Y-8597500D01*
X13047500Y-10317500D02*
X13077500Y-10347500D01*
X13077500Y-10317500D02*
X13047500Y-10347500D01*
X13587500Y-12970000D02*
X13617500Y-13000000D01*
X13617500Y-12970000D02*
X13587500Y-13000000D01*
X14803603Y-10316603D02*
X14833603Y-10346603D01*
X14833603Y-10316603D02*
X14803603Y-10346603D01*
X14895191Y-8566191D02*
X14925191Y-8596191D01*
X14925191Y-8566191D02*
X14895191Y-8596191D01*
X14986779Y-6814779D02*
X15016779Y-6844779D01*
X15016779Y-6814779D02*
X14986779Y-6844779D01*
X16060189Y-11377966D02*
X16090189Y-11407966D01*
X16090189Y-11377966D02*
X16060189Y-11407966D01*
X16631092Y-9317908D02*
X16661092Y-9347908D01*
X16661092Y-9317908D02*
X16631092Y-9347908D01*
X16794945Y-7664378D02*
X16824945Y-7694378D01*
X16824945Y-7664378D02*
X16794945Y-7694378D01*
X17200689Y-12519311D02*
X17230689Y-12549311D01*
X17230689Y-12519311D02*
X17200689Y-12549311D01*
X17878092Y-10564908D02*
X17908092Y-10594908D01*
X17908092Y-10564908D02*
X17878092Y-10594908D01*
X17950000Y-5923000D02*
X17980000Y-5953000D01*
X17980000Y-5923000D02*
X17950000Y-5953000D01*
X18021282Y-6899412D02*
X18051282Y-6929412D01*
X18051282Y-6899412D02*
X18021282Y-6929412D01*
X18355622Y-9227378D02*
X18385622Y-9257378D01*
X18385622Y-9227378D02*
X18355622Y-9257378D01*
X18564500Y-7273500D02*
X18594500Y-7303500D01*
X18594500Y-7273500D02*
X18564500Y-7303500D01*
X18729394Y-8232729D02*
X18759394Y-8262729D01*
X18759394Y-8232729D02*
X18729394Y-8262729D01*
X19922954Y-9217537D02*
X19952954Y-9247537D01*
X19952954Y-9217537D02*
X19922954Y-9247537D01*
X16571950Y-12012500D02*
G75*
G02*
X16483050Y-12012500I-44450J0D01*
G01*
X16483050Y-12012500D02*
G75*
G02*
X16571950Y-12012500I44450J0D01*
G01*
X16571950Y-12352500D02*
G75*
G02*
X16483050Y-12352500I-44450J0D01*
G01*
X16483050Y-12352500D02*
G75*
G02*
X16571950Y-12352500I44450J0D01*
G01*
X18529950Y-5890500D02*
G75*
G02*
X18441050Y-5890500I-44450J0D01*
G01*
X18441050Y-5890500D02*
G75*
G02*
X18529950Y-5890500I44450J0D01*
G01*
X18529950Y-6144500D02*
G75*
G02*
X18441050Y-6144500I-44450J0D01*
G01*
X18441050Y-6144500D02*
G75*
G02*
X18529950Y-6144500I44450J0D01*
G01*
X18529950Y-6398500D02*
G75*
G02*
X18441050Y-6398500I-44450J0D01*
G01*
X18441050Y-6398500D02*
G75*
G02*
X18529950Y-6398500I44450J0D01*
G01*
X18529950Y-6652500D02*
G75*
G02*
X18441050Y-6652500I-44450J0D01*
G01*
X18441050Y-6652500D02*
G75*
G02*
X18529950Y-6652500I44450J0D01*
G01*
X18529950Y-6906500D02*
G75*
G02*
X18441050Y-6906500I-44450J0D01*
G01*
X18441050Y-6906500D02*
G75*
G02*
X18529950Y-6906500I44450J0D01*
G01*
X18529950Y-7160500D02*
G75*
G02*
X18441050Y-7160500I-44450J0D01*
G01*
X18441050Y-7160500D02*
G75*
G02*
X18529950Y-7160500I44450J0D01*
G01*
X18529950Y-7414500D02*
G75*
G02*
X18441050Y-7414500I-44450J0D01*
G01*
X18441050Y-7414500D02*
G75*
G02*
X18529950Y-7414500I44450J0D01*
G01*
X20053950Y-5890500D02*
G75*
G02*
X19965050Y-5890500I-44450J0D01*
G01*
X19965050Y-5890500D02*
G75*
G02*
X20053950Y-5890500I44450J0D01*
G01*
X20053950Y-6144500D02*
G75*
G02*
X19965050Y-6144500I-44450J0D01*
G01*
X19965050Y-6144500D02*
G75*
G02*
X20053950Y-6144500I44450J0D01*
G01*
X20053950Y-6398500D02*
G75*
G02*
X19965050Y-6398500I-44450J0D01*
G01*
X19965050Y-6398500D02*
G75*
G02*
X20053950Y-6398500I44450J0D01*
G01*
X20053950Y-6652500D02*
G75*
G02*
X19965050Y-6652500I-44450J0D01*
G01*
X19965050Y-6652500D02*
G75*
G02*
X20053950Y-6652500I44450J0D01*
G01*
X20053950Y-6906500D02*
G75*
G02*
X19965050Y-6906500I-44450J0D01*
G01*
X19965050Y-6906500D02*
G75*
G02*
X20053950Y-6906500I44450J0D01*
G01*
X20053950Y-7160500D02*
G75*
G02*
X19965050Y-7160500I-44450J0D01*
G01*
X19965050Y-7160500D02*
G75*
G02*
X20053950Y-7160500I44450J0D01*
G01*
X20053950Y-7414500D02*
G75*
G02*
X19965050Y-7414500I-44450J0D01*
G01*
X19965050Y-7414500D02*
G75*
G02*
X20053950Y-7414500I44450J0D01*
G01*
X9817500Y-6712500D02*
X9817500Y-6812500D01*
X9767500Y-6762500D02*
X9867500Y-6762500D01*
X9767500Y-6737500D02*
X9767500Y-6787500D01*
X9867500Y-6787500D02*
G75*
G02*
X9767500Y-6787500I-50000J0D01*
G01*
X9867500Y-6787500D02*
X9867500Y-6737500D01*
X9867500Y-6737500D02*
G75*
G03*
X9767500Y-6737500I-50000J0D01*
G01*
X10237500Y-5862500D02*
X10237500Y-5962500D01*
X10187500Y-5912500D02*
X10287500Y-5912500D01*
X10187500Y-5887500D02*
X10187500Y-5937500D01*
X10287500Y-5937500D02*
G75*
G02*
X10187500Y-5937500I-50000J0D01*
G01*
X10287500Y-5937500D02*
X10287500Y-5887500D01*
X10287500Y-5887500D02*
G75*
G03*
X10187500Y-5887500I-50000J0D01*
G01*
X10237500Y-6162500D02*
X10237500Y-6262500D01*
X10187500Y-6212500D02*
X10287500Y-6212500D01*
X10187500Y-6187500D02*
X10187500Y-6237500D01*
X10287500Y-6237500D02*
G75*
G02*
X10187500Y-6237500I-50000J0D01*
G01*
X10287500Y-6237500D02*
X10287500Y-6187500D01*
X10287500Y-6187500D02*
G75*
G03*
X10187500Y-6187500I-50000J0D01*
G01*
X10237500Y-6562500D02*
X10237500Y-6662500D01*
X10187500Y-6612500D02*
X10287500Y-6612500D01*
X10187500Y-6587500D02*
X10187500Y-6637500D01*
X10287500Y-6637500D02*
G75*
G02*
X10187500Y-6637500I-50000J0D01*
G01*
X10287500Y-6637500D02*
X10287500Y-6587500D01*
X10287500Y-6587500D02*
G75*
G03*
X10187500Y-6587500I-50000J0D01*
G01*
D14*
X18838921Y-6466221D02*
X18838921Y-6394379D01*
X18767079Y-6394379D01*
X18767079Y-6466221D01*
X18838921Y-6466221D01*
X18838921Y-6656721D02*
X18838921Y-6584879D01*
X18767079Y-6584879D01*
X18767079Y-6656721D01*
X18838921Y-6656721D01*
X19156421Y-5831221D02*
X19156421Y-5759379D01*
X19084579Y-5759379D01*
X19084579Y-5831221D01*
X19156421Y-5831221D01*
X19156421Y-6085221D02*
X19156421Y-6013379D01*
X19084579Y-6013379D01*
X19084579Y-6085221D01*
X19156421Y-6085221D01*
X19410421Y-5831221D02*
X19410421Y-5759379D01*
X19338579Y-5759379D01*
X19338579Y-5831221D01*
X19410421Y-5831221D01*
X19410421Y-6085221D02*
X19410421Y-6013379D01*
X19338579Y-6013379D01*
X19338579Y-6085221D01*
X19410421Y-6085221D01*
D11*
X9130777Y-14039615D02*
X9130777Y-13839615D01*
X9130777Y-13839615D02*
X9178396Y-13839615D01*
X9178396Y-13839615D02*
X9206967Y-13849138D01*
X9206967Y-13849138D02*
X9226015Y-13868186D01*
X9226015Y-13868186D02*
X9235539Y-13887234D01*
X9235539Y-13887234D02*
X9245063Y-13925329D01*
X9245063Y-13925329D02*
X9245063Y-13953900D01*
X9245063Y-13953900D02*
X9235539Y-13991996D01*
X9235539Y-13991996D02*
X9226015Y-14011043D01*
X9226015Y-14011043D02*
X9206967Y-14030091D01*
X9206967Y-14030091D02*
X9178396Y-14039615D01*
X9178396Y-14039615D02*
X9130777Y-14039615D01*
X9330777Y-14039615D02*
X9330777Y-13906281D01*
X9330777Y-13944377D02*
X9340301Y-13925329D01*
X9340301Y-13925329D02*
X9349824Y-13915805D01*
X9349824Y-13915805D02*
X9368872Y-13906281D01*
X9368872Y-13906281D02*
X9387920Y-13906281D01*
X9454586Y-14039615D02*
X9454586Y-13906281D01*
X9454586Y-13839615D02*
X9445063Y-13849138D01*
X9445063Y-13849138D02*
X9454586Y-13858662D01*
X9454586Y-13858662D02*
X9464110Y-13849138D01*
X9464110Y-13849138D02*
X9454586Y-13839615D01*
X9454586Y-13839615D02*
X9454586Y-13858662D01*
X9578396Y-14039615D02*
X9559348Y-14030091D01*
X9559348Y-14030091D02*
X9549824Y-14011043D01*
X9549824Y-14011043D02*
X9549824Y-13839615D01*
X9683158Y-14039615D02*
X9664110Y-14030091D01*
X9664110Y-14030091D02*
X9654586Y-14011043D01*
X9654586Y-14011043D02*
X9654586Y-13839615D01*
X9911729Y-14039615D02*
X9911729Y-13839615D01*
X9911729Y-13839615D02*
X9978396Y-13982472D01*
X9978396Y-13982472D02*
X10045063Y-13839615D01*
X10045063Y-13839615D02*
X10045063Y-14039615D01*
X10226015Y-14039615D02*
X10226015Y-13934853D01*
X10226015Y-13934853D02*
X10216491Y-13915805D01*
X10216491Y-13915805D02*
X10197444Y-13906281D01*
X10197444Y-13906281D02*
X10159348Y-13906281D01*
X10159348Y-13906281D02*
X10140301Y-13915805D01*
X10226015Y-14030091D02*
X10206967Y-14039615D01*
X10206967Y-14039615D02*
X10159348Y-14039615D01*
X10159348Y-14039615D02*
X10140301Y-14030091D01*
X10140301Y-14030091D02*
X10130777Y-14011043D01*
X10130777Y-14011043D02*
X10130777Y-13991996D01*
X10130777Y-13991996D02*
X10140301Y-13972948D01*
X10140301Y-13972948D02*
X10159348Y-13963424D01*
X10159348Y-13963424D02*
X10206967Y-13963424D01*
X10206967Y-13963424D02*
X10226015Y-13953900D01*
X10321253Y-13906281D02*
X10321253Y-14106281D01*
X10321253Y-13915805D02*
X10340301Y-13906281D01*
X10340301Y-13906281D02*
X10378396Y-13906281D01*
X10378396Y-13906281D02*
X10397444Y-13915805D01*
X10397444Y-13915805D02*
X10406967Y-13925329D01*
X10406967Y-13925329D02*
X10416491Y-13944377D01*
X10416491Y-13944377D02*
X10416491Y-14001519D01*
X10416491Y-14001519D02*
X10406967Y-14020567D01*
X10406967Y-14020567D02*
X10397444Y-14030091D01*
X10397444Y-14030091D02*
X10378396Y-14039615D01*
X10378396Y-14039615D02*
X10340301Y-14039615D01*
X10340301Y-14039615D02*
X10321253Y-14030091D01*
X10502205Y-14020567D02*
X10511729Y-14030091D01*
X10511729Y-14030091D02*
X10502205Y-14039615D01*
X10502205Y-14039615D02*
X10492682Y-14030091D01*
X10492682Y-14030091D02*
X10502205Y-14020567D01*
X10502205Y-14020567D02*
X10502205Y-14039615D01*
X10502205Y-13915805D02*
X10511729Y-13925329D01*
X10511729Y-13925329D02*
X10502205Y-13934853D01*
X10502205Y-13934853D02*
X10492682Y-13925329D01*
X10492682Y-13925329D02*
X10502205Y-13915805D01*
X10502205Y-13915805D02*
X10502205Y-13934853D01*
D13*
X8840000Y-14353131D02*
X8870000Y-14383131D01*
X8870000Y-14353131D02*
X8840000Y-14383131D01*
D11*
X9168872Y-14259615D02*
X9187920Y-14259615D01*
X9187920Y-14259615D02*
X9206967Y-14269138D01*
X9206967Y-14269138D02*
X9216491Y-14278662D01*
X9216491Y-14278662D02*
X9226015Y-14297710D01*
X9226015Y-14297710D02*
X9235539Y-14335805D01*
X9235539Y-14335805D02*
X9235539Y-14383424D01*
X9235539Y-14383424D02*
X9226015Y-14421519D01*
X9226015Y-14421519D02*
X9216491Y-14440567D01*
X9216491Y-14440567D02*
X9206967Y-14450091D01*
X9206967Y-14450091D02*
X9187920Y-14459615D01*
X9187920Y-14459615D02*
X9168872Y-14459615D01*
X9168872Y-14459615D02*
X9149824Y-14450091D01*
X9149824Y-14450091D02*
X9140301Y-14440567D01*
X9140301Y-14440567D02*
X9130777Y-14421519D01*
X9130777Y-14421519D02*
X9121253Y-14383424D01*
X9121253Y-14383424D02*
X9121253Y-14335805D01*
X9121253Y-14335805D02*
X9130777Y-14297710D01*
X9130777Y-14297710D02*
X9140301Y-14278662D01*
X9140301Y-14278662D02*
X9149824Y-14269138D01*
X9149824Y-14269138D02*
X9168872Y-14259615D01*
X9321253Y-14440567D02*
X9330777Y-14450091D01*
X9330777Y-14450091D02*
X9321253Y-14459615D01*
X9321253Y-14459615D02*
X9311729Y-14450091D01*
X9311729Y-14450091D02*
X9321253Y-14440567D01*
X9321253Y-14440567D02*
X9321253Y-14459615D01*
X9397444Y-14259615D02*
X9521253Y-14259615D01*
X9521253Y-14259615D02*
X9454586Y-14335805D01*
X9454586Y-14335805D02*
X9483158Y-14335805D01*
X9483158Y-14335805D02*
X9502205Y-14345329D01*
X9502205Y-14345329D02*
X9511729Y-14354853D01*
X9511729Y-14354853D02*
X9521253Y-14373900D01*
X9521253Y-14373900D02*
X9521253Y-14421519D01*
X9521253Y-14421519D02*
X9511729Y-14440567D01*
X9511729Y-14440567D02*
X9502205Y-14450091D01*
X9502205Y-14450091D02*
X9483158Y-14459615D01*
X9483158Y-14459615D02*
X9426015Y-14459615D01*
X9426015Y-14459615D02*
X9406967Y-14450091D01*
X9406967Y-14450091D02*
X9397444Y-14440567D01*
X9645063Y-14259615D02*
X9664110Y-14259615D01*
X9664110Y-14259615D02*
X9683158Y-14269138D01*
X9683158Y-14269138D02*
X9692682Y-14278662D01*
X9692682Y-14278662D02*
X9702205Y-14297710D01*
X9702205Y-14297710D02*
X9711729Y-14335805D01*
X9711729Y-14335805D02*
X9711729Y-14383424D01*
X9711729Y-14383424D02*
X9702205Y-14421519D01*
X9702205Y-14421519D02*
X9692682Y-14440567D01*
X9692682Y-14440567D02*
X9683158Y-14450091D01*
X9683158Y-14450091D02*
X9664110Y-14459615D01*
X9664110Y-14459615D02*
X9645063Y-14459615D01*
X9645063Y-14459615D02*
X9626015Y-14450091D01*
X9626015Y-14450091D02*
X9616491Y-14440567D01*
X9616491Y-14440567D02*
X9606967Y-14421519D01*
X9606967Y-14421519D02*
X9597444Y-14383424D01*
X9597444Y-14383424D02*
X9597444Y-14335805D01*
X9597444Y-14335805D02*
X9606967Y-14297710D01*
X9606967Y-14297710D02*
X9616491Y-14278662D01*
X9616491Y-14278662D02*
X9626015Y-14269138D01*
X9626015Y-14269138D02*
X9645063Y-14259615D01*
X9835539Y-14259615D02*
X9854586Y-14259615D01*
X9854586Y-14259615D02*
X9873634Y-14269138D01*
X9873634Y-14269138D02*
X9883158Y-14278662D01*
X9883158Y-14278662D02*
X9892682Y-14297710D01*
X9892682Y-14297710D02*
X9902205Y-14335805D01*
X9902205Y-14335805D02*
X9902205Y-14383424D01*
X9902205Y-14383424D02*
X9892682Y-14421519D01*
X9892682Y-14421519D02*
X9883158Y-14440567D01*
X9883158Y-14440567D02*
X9873634Y-14450091D01*
X9873634Y-14450091D02*
X9854586Y-14459615D01*
X9854586Y-14459615D02*
X9835539Y-14459615D01*
X9835539Y-14459615D02*
X9816491Y-14450091D01*
X9816491Y-14450091D02*
X9806967Y-14440567D01*
X9806967Y-14440567D02*
X9797444Y-14421519D01*
X9797444Y-14421519D02*
X9787920Y-14383424D01*
X9787920Y-14383424D02*
X9787920Y-14335805D01*
X9787920Y-14335805D02*
X9797444Y-14297710D01*
X9797444Y-14297710D02*
X9806967Y-14278662D01*
X9806967Y-14278662D02*
X9816491Y-14269138D01*
X9816491Y-14269138D02*
X9835539Y-14259615D01*
X9987920Y-14459615D02*
X9987920Y-14326281D01*
X9987920Y-14345329D02*
X9997444Y-14335805D01*
X9997444Y-14335805D02*
X10016491Y-14326281D01*
X10016491Y-14326281D02*
X10045063Y-14326281D01*
X10045063Y-14326281D02*
X10064110Y-14335805D01*
X10064110Y-14335805D02*
X10073634Y-14354853D01*
X10073634Y-14354853D02*
X10073634Y-14459615D01*
X10073634Y-14354853D02*
X10083158Y-14335805D01*
X10083158Y-14335805D02*
X10102205Y-14326281D01*
X10102205Y-14326281D02*
X10130777Y-14326281D01*
X10130777Y-14326281D02*
X10149825Y-14335805D01*
X10149825Y-14335805D02*
X10159348Y-14354853D01*
X10159348Y-14354853D02*
X10159348Y-14459615D01*
X10254586Y-14459615D02*
X10254586Y-14326281D01*
X10254586Y-14345329D02*
X10264110Y-14335805D01*
X10264110Y-14335805D02*
X10283158Y-14326281D01*
X10283158Y-14326281D02*
X10311729Y-14326281D01*
X10311729Y-14326281D02*
X10330777Y-14335805D01*
X10330777Y-14335805D02*
X10340301Y-14354853D01*
X10340301Y-14354853D02*
X10340301Y-14459615D01*
X10340301Y-14354853D02*
X10349825Y-14335805D01*
X10349825Y-14335805D02*
X10368872Y-14326281D01*
X10368872Y-14326281D02*
X10397444Y-14326281D01*
X10397444Y-14326281D02*
X10416491Y-14335805D01*
X10416491Y-14335805D02*
X10426015Y-14354853D01*
X10426015Y-14354853D02*
X10426015Y-14459615D01*
X10816491Y-14250091D02*
X10645063Y-14507234D01*
X11073634Y-14259615D02*
X11092682Y-14259615D01*
X11092682Y-14259615D02*
X11111729Y-14269138D01*
X11111729Y-14269138D02*
X11121253Y-14278662D01*
X11121253Y-14278662D02*
X11130777Y-14297710D01*
X11130777Y-14297710D02*
X11140301Y-14335805D01*
X11140301Y-14335805D02*
X11140301Y-14383424D01*
X11140301Y-14383424D02*
X11130777Y-14421519D01*
X11130777Y-14421519D02*
X11121253Y-14440567D01*
X11121253Y-14440567D02*
X11111729Y-14450091D01*
X11111729Y-14450091D02*
X11092682Y-14459615D01*
X11092682Y-14459615D02*
X11073634Y-14459615D01*
X11073634Y-14459615D02*
X11054587Y-14450091D01*
X11054587Y-14450091D02*
X11045063Y-14440567D01*
X11045063Y-14440567D02*
X11035539Y-14421519D01*
X11035539Y-14421519D02*
X11026015Y-14383424D01*
X11026015Y-14383424D02*
X11026015Y-14335805D01*
X11026015Y-14335805D02*
X11035539Y-14297710D01*
X11035539Y-14297710D02*
X11045063Y-14278662D01*
X11045063Y-14278662D02*
X11054587Y-14269138D01*
X11054587Y-14269138D02*
X11073634Y-14259615D01*
X11226015Y-14440567D02*
X11235539Y-14450091D01*
X11235539Y-14450091D02*
X11226015Y-14459615D01*
X11226015Y-14459615D02*
X11216491Y-14450091D01*
X11216491Y-14450091D02*
X11226015Y-14440567D01*
X11226015Y-14440567D02*
X11226015Y-14459615D01*
X11359348Y-14259615D02*
X11378396Y-14259615D01*
X11378396Y-14259615D02*
X11397444Y-14269138D01*
X11397444Y-14269138D02*
X11406967Y-14278662D01*
X11406967Y-14278662D02*
X11416491Y-14297710D01*
X11416491Y-14297710D02*
X11426015Y-14335805D01*
X11426015Y-14335805D02*
X11426015Y-14383424D01*
X11426015Y-14383424D02*
X11416491Y-14421519D01*
X11416491Y-14421519D02*
X11406967Y-14440567D01*
X11406967Y-14440567D02*
X11397444Y-14450091D01*
X11397444Y-14450091D02*
X11378396Y-14459615D01*
X11378396Y-14459615D02*
X11359348Y-14459615D01*
X11359348Y-14459615D02*
X11340301Y-14450091D01*
X11340301Y-14450091D02*
X11330777Y-14440567D01*
X11330777Y-14440567D02*
X11321253Y-14421519D01*
X11321253Y-14421519D02*
X11311729Y-14383424D01*
X11311729Y-14383424D02*
X11311729Y-14335805D01*
X11311729Y-14335805D02*
X11321253Y-14297710D01*
X11321253Y-14297710D02*
X11330777Y-14278662D01*
X11330777Y-14278662D02*
X11340301Y-14269138D01*
X11340301Y-14269138D02*
X11359348Y-14259615D01*
X11616491Y-14459615D02*
X11502206Y-14459615D01*
X11559348Y-14459615D02*
X11559348Y-14259615D01*
X11559348Y-14259615D02*
X11540301Y-14288186D01*
X11540301Y-14288186D02*
X11521253Y-14307234D01*
X11521253Y-14307234D02*
X11502206Y-14316757D01*
X11806967Y-14459615D02*
X11692682Y-14459615D01*
X11749825Y-14459615D02*
X11749825Y-14259615D01*
X11749825Y-14259615D02*
X11730777Y-14288186D01*
X11730777Y-14288186D02*
X11711729Y-14307234D01*
X11711729Y-14307234D02*
X11692682Y-14316757D01*
X11921253Y-14345329D02*
X11902206Y-14335805D01*
X11902206Y-14335805D02*
X11892682Y-14326281D01*
X11892682Y-14326281D02*
X11883158Y-14307234D01*
X11883158Y-14307234D02*
X11883158Y-14297710D01*
X11883158Y-14297710D02*
X11892682Y-14278662D01*
X11892682Y-14278662D02*
X11902206Y-14269138D01*
X11902206Y-14269138D02*
X11921253Y-14259615D01*
X11921253Y-14259615D02*
X11959348Y-14259615D01*
X11959348Y-14259615D02*
X11978396Y-14269138D01*
X11978396Y-14269138D02*
X11987920Y-14278662D01*
X11987920Y-14278662D02*
X11997444Y-14297710D01*
X11997444Y-14297710D02*
X11997444Y-14307234D01*
X11997444Y-14307234D02*
X11987920Y-14326281D01*
X11987920Y-14326281D02*
X11978396Y-14335805D01*
X11978396Y-14335805D02*
X11959348Y-14345329D01*
X11959348Y-14345329D02*
X11921253Y-14345329D01*
X11921253Y-14345329D02*
X11902206Y-14354853D01*
X11902206Y-14354853D02*
X11892682Y-14364377D01*
X11892682Y-14364377D02*
X11883158Y-14383424D01*
X11883158Y-14383424D02*
X11883158Y-14421519D01*
X11883158Y-14421519D02*
X11892682Y-14440567D01*
X11892682Y-14440567D02*
X11902206Y-14450091D01*
X11902206Y-14450091D02*
X11921253Y-14459615D01*
X11921253Y-14459615D02*
X11959348Y-14459615D01*
X11959348Y-14459615D02*
X11978396Y-14450091D01*
X11978396Y-14450091D02*
X11987920Y-14440567D01*
X11987920Y-14440567D02*
X11997444Y-14421519D01*
X11997444Y-14421519D02*
X11997444Y-14383424D01*
X11997444Y-14383424D02*
X11987920Y-14364377D01*
X11987920Y-14364377D02*
X11978396Y-14354853D01*
X11978396Y-14354853D02*
X11959348Y-14345329D01*
X12073634Y-14259615D02*
X12073634Y-14297710D01*
X12149825Y-14259615D02*
X12149825Y-14297710D01*
X12445063Y-14535805D02*
X12435539Y-14526281D01*
X12435539Y-14526281D02*
X12416491Y-14497710D01*
X12416491Y-14497710D02*
X12406968Y-14478662D01*
X12406968Y-14478662D02*
X12397444Y-14450091D01*
X12397444Y-14450091D02*
X12387920Y-14402472D01*
X12387920Y-14402472D02*
X12387920Y-14364377D01*
X12387920Y-14364377D02*
X12397444Y-14316757D01*
X12397444Y-14316757D02*
X12406968Y-14288186D01*
X12406968Y-14288186D02*
X12416491Y-14269138D01*
X12416491Y-14269138D02*
X12435539Y-14240567D01*
X12435539Y-14240567D02*
X12445063Y-14231043D01*
X12511729Y-14278662D02*
X12521253Y-14269138D01*
X12521253Y-14269138D02*
X12540301Y-14259615D01*
X12540301Y-14259615D02*
X12587920Y-14259615D01*
X12587920Y-14259615D02*
X12606968Y-14269138D01*
X12606968Y-14269138D02*
X12616491Y-14278662D01*
X12616491Y-14278662D02*
X12626015Y-14297710D01*
X12626015Y-14297710D02*
X12626015Y-14316757D01*
X12626015Y-14316757D02*
X12616491Y-14345329D01*
X12616491Y-14345329D02*
X12502206Y-14459615D01*
X12502206Y-14459615D02*
X12626015Y-14459615D01*
X12797444Y-14259615D02*
X12759348Y-14259615D01*
X12759348Y-14259615D02*
X12740301Y-14269138D01*
X12740301Y-14269138D02*
X12730777Y-14278662D01*
X12730777Y-14278662D02*
X12711729Y-14307234D01*
X12711729Y-14307234D02*
X12702206Y-14345329D01*
X12702206Y-14345329D02*
X12702206Y-14421519D01*
X12702206Y-14421519D02*
X12711729Y-14440567D01*
X12711729Y-14440567D02*
X12721253Y-14450091D01*
X12721253Y-14450091D02*
X12740301Y-14459615D01*
X12740301Y-14459615D02*
X12778396Y-14459615D01*
X12778396Y-14459615D02*
X12797444Y-14450091D01*
X12797444Y-14450091D02*
X12806968Y-14440567D01*
X12806968Y-14440567D02*
X12816491Y-14421519D01*
X12816491Y-14421519D02*
X12816491Y-14373900D01*
X12816491Y-14373900D02*
X12806968Y-14354853D01*
X12806968Y-14354853D02*
X12797444Y-14345329D01*
X12797444Y-14345329D02*
X12778396Y-14335805D01*
X12778396Y-14335805D02*
X12740301Y-14335805D01*
X12740301Y-14335805D02*
X12721253Y-14345329D01*
X12721253Y-14345329D02*
X12711729Y-14354853D01*
X12711729Y-14354853D02*
X12702206Y-14373900D01*
X13054587Y-14459615D02*
X13054587Y-14259615D01*
X13140301Y-14459615D02*
X13140301Y-14354853D01*
X13140301Y-14354853D02*
X13130777Y-14335805D01*
X13130777Y-14335805D02*
X13111730Y-14326281D01*
X13111730Y-14326281D02*
X13083158Y-14326281D01*
X13083158Y-14326281D02*
X13064110Y-14335805D01*
X13064110Y-14335805D02*
X13054587Y-14345329D01*
X13264110Y-14459615D02*
X13245063Y-14450091D01*
X13245063Y-14450091D02*
X13235539Y-14440567D01*
X13235539Y-14440567D02*
X13226015Y-14421519D01*
X13226015Y-14421519D02*
X13226015Y-14364377D01*
X13226015Y-14364377D02*
X13235539Y-14345329D01*
X13235539Y-14345329D02*
X13245063Y-14335805D01*
X13245063Y-14335805D02*
X13264110Y-14326281D01*
X13264110Y-14326281D02*
X13292682Y-14326281D01*
X13292682Y-14326281D02*
X13311730Y-14335805D01*
X13311730Y-14335805D02*
X13321253Y-14345329D01*
X13321253Y-14345329D02*
X13330777Y-14364377D01*
X13330777Y-14364377D02*
X13330777Y-14421519D01*
X13330777Y-14421519D02*
X13321253Y-14440567D01*
X13321253Y-14440567D02*
X13311730Y-14450091D01*
X13311730Y-14450091D02*
X13292682Y-14459615D01*
X13292682Y-14459615D02*
X13264110Y-14459615D01*
X13445063Y-14459615D02*
X13426015Y-14450091D01*
X13426015Y-14450091D02*
X13416491Y-14431043D01*
X13416491Y-14431043D02*
X13416491Y-14259615D01*
X13597444Y-14450091D02*
X13578396Y-14459615D01*
X13578396Y-14459615D02*
X13540301Y-14459615D01*
X13540301Y-14459615D02*
X13521253Y-14450091D01*
X13521253Y-14450091D02*
X13511730Y-14431043D01*
X13511730Y-14431043D02*
X13511730Y-14354853D01*
X13511730Y-14354853D02*
X13521253Y-14335805D01*
X13521253Y-14335805D02*
X13540301Y-14326281D01*
X13540301Y-14326281D02*
X13578396Y-14326281D01*
X13578396Y-14326281D02*
X13597444Y-14335805D01*
X13597444Y-14335805D02*
X13606968Y-14354853D01*
X13606968Y-14354853D02*
X13606968Y-14373900D01*
X13606968Y-14373900D02*
X13511730Y-14392948D01*
X13683158Y-14450091D02*
X13702206Y-14459615D01*
X13702206Y-14459615D02*
X13740301Y-14459615D01*
X13740301Y-14459615D02*
X13759349Y-14450091D01*
X13759349Y-14450091D02*
X13768872Y-14431043D01*
X13768872Y-14431043D02*
X13768872Y-14421519D01*
X13768872Y-14421519D02*
X13759349Y-14402472D01*
X13759349Y-14402472D02*
X13740301Y-14392948D01*
X13740301Y-14392948D02*
X13711730Y-14392948D01*
X13711730Y-14392948D02*
X13692682Y-14383424D01*
X13692682Y-14383424D02*
X13683158Y-14364377D01*
X13683158Y-14364377D02*
X13683158Y-14354853D01*
X13683158Y-14354853D02*
X13692682Y-14335805D01*
X13692682Y-14335805D02*
X13711730Y-14326281D01*
X13711730Y-14326281D02*
X13740301Y-14326281D01*
X13740301Y-14326281D02*
X13759349Y-14335805D01*
X13835539Y-14535805D02*
X13845063Y-14526281D01*
X13845063Y-14526281D02*
X13864111Y-14497710D01*
X13864111Y-14497710D02*
X13873634Y-14478662D01*
X13873634Y-14478662D02*
X13883158Y-14450091D01*
X13883158Y-14450091D02*
X13892682Y-14402472D01*
X13892682Y-14402472D02*
X13892682Y-14364377D01*
X13892682Y-14364377D02*
X13883158Y-14316757D01*
X13883158Y-14316757D02*
X13873634Y-14288186D01*
X13873634Y-14288186D02*
X13864111Y-14269138D01*
X13864111Y-14269138D02*
X13845063Y-14240567D01*
X13845063Y-14240567D02*
X13835539Y-14231043D01*
D13*
X8870000Y-14632131D02*
G75*
G02*
X8781100Y-14632131I-44450J0D01*
G01*
X8781100Y-14632131D02*
G75*
G02*
X8870000Y-14632131I44450J0D01*
G01*
D11*
X9168872Y-14523615D02*
X9187920Y-14523615D01*
X9187920Y-14523615D02*
X9206967Y-14533138D01*
X9206967Y-14533138D02*
X9216491Y-14542662D01*
X9216491Y-14542662D02*
X9226015Y-14561710D01*
X9226015Y-14561710D02*
X9235539Y-14599805D01*
X9235539Y-14599805D02*
X9235539Y-14647424D01*
X9235539Y-14647424D02*
X9226015Y-14685519D01*
X9226015Y-14685519D02*
X9216491Y-14704567D01*
X9216491Y-14704567D02*
X9206967Y-14714091D01*
X9206967Y-14714091D02*
X9187920Y-14723615D01*
X9187920Y-14723615D02*
X9168872Y-14723615D01*
X9168872Y-14723615D02*
X9149824Y-14714091D01*
X9149824Y-14714091D02*
X9140301Y-14704567D01*
X9140301Y-14704567D02*
X9130777Y-14685519D01*
X9130777Y-14685519D02*
X9121253Y-14647424D01*
X9121253Y-14647424D02*
X9121253Y-14599805D01*
X9121253Y-14599805D02*
X9130777Y-14561710D01*
X9130777Y-14561710D02*
X9140301Y-14542662D01*
X9140301Y-14542662D02*
X9149824Y-14533138D01*
X9149824Y-14533138D02*
X9168872Y-14523615D01*
X9321253Y-14704567D02*
X9330777Y-14714091D01*
X9330777Y-14714091D02*
X9321253Y-14723615D01*
X9321253Y-14723615D02*
X9311729Y-14714091D01*
X9311729Y-14714091D02*
X9321253Y-14704567D01*
X9321253Y-14704567D02*
X9321253Y-14723615D01*
X9445063Y-14609329D02*
X9426015Y-14599805D01*
X9426015Y-14599805D02*
X9416491Y-14590281D01*
X9416491Y-14590281D02*
X9406967Y-14571234D01*
X9406967Y-14571234D02*
X9406967Y-14561710D01*
X9406967Y-14561710D02*
X9416491Y-14542662D01*
X9416491Y-14542662D02*
X9426015Y-14533138D01*
X9426015Y-14533138D02*
X9445063Y-14523615D01*
X9445063Y-14523615D02*
X9483158Y-14523615D01*
X9483158Y-14523615D02*
X9502205Y-14533138D01*
X9502205Y-14533138D02*
X9511729Y-14542662D01*
X9511729Y-14542662D02*
X9521253Y-14561710D01*
X9521253Y-14561710D02*
X9521253Y-14571234D01*
X9521253Y-14571234D02*
X9511729Y-14590281D01*
X9511729Y-14590281D02*
X9502205Y-14599805D01*
X9502205Y-14599805D02*
X9483158Y-14609329D01*
X9483158Y-14609329D02*
X9445063Y-14609329D01*
X9445063Y-14609329D02*
X9426015Y-14618853D01*
X9426015Y-14618853D02*
X9416491Y-14628377D01*
X9416491Y-14628377D02*
X9406967Y-14647424D01*
X9406967Y-14647424D02*
X9406967Y-14685519D01*
X9406967Y-14685519D02*
X9416491Y-14704567D01*
X9416491Y-14704567D02*
X9426015Y-14714091D01*
X9426015Y-14714091D02*
X9445063Y-14723615D01*
X9445063Y-14723615D02*
X9483158Y-14723615D01*
X9483158Y-14723615D02*
X9502205Y-14714091D01*
X9502205Y-14714091D02*
X9511729Y-14704567D01*
X9511729Y-14704567D02*
X9521253Y-14685519D01*
X9521253Y-14685519D02*
X9521253Y-14647424D01*
X9521253Y-14647424D02*
X9511729Y-14628377D01*
X9511729Y-14628377D02*
X9502205Y-14618853D01*
X9502205Y-14618853D02*
X9483158Y-14609329D01*
X9635539Y-14609329D02*
X9616491Y-14599805D01*
X9616491Y-14599805D02*
X9606967Y-14590281D01*
X9606967Y-14590281D02*
X9597444Y-14571234D01*
X9597444Y-14571234D02*
X9597444Y-14561710D01*
X9597444Y-14561710D02*
X9606967Y-14542662D01*
X9606967Y-14542662D02*
X9616491Y-14533138D01*
X9616491Y-14533138D02*
X9635539Y-14523615D01*
X9635539Y-14523615D02*
X9673634Y-14523615D01*
X9673634Y-14523615D02*
X9692682Y-14533138D01*
X9692682Y-14533138D02*
X9702205Y-14542662D01*
X9702205Y-14542662D02*
X9711729Y-14561710D01*
X9711729Y-14561710D02*
X9711729Y-14571234D01*
X9711729Y-14571234D02*
X9702205Y-14590281D01*
X9702205Y-14590281D02*
X9692682Y-14599805D01*
X9692682Y-14599805D02*
X9673634Y-14609329D01*
X9673634Y-14609329D02*
X9635539Y-14609329D01*
X9635539Y-14609329D02*
X9616491Y-14618853D01*
X9616491Y-14618853D02*
X9606967Y-14628377D01*
X9606967Y-14628377D02*
X9597444Y-14647424D01*
X9597444Y-14647424D02*
X9597444Y-14685519D01*
X9597444Y-14685519D02*
X9606967Y-14704567D01*
X9606967Y-14704567D02*
X9616491Y-14714091D01*
X9616491Y-14714091D02*
X9635539Y-14723615D01*
X9635539Y-14723615D02*
X9673634Y-14723615D01*
X9673634Y-14723615D02*
X9692682Y-14714091D01*
X9692682Y-14714091D02*
X9702205Y-14704567D01*
X9702205Y-14704567D02*
X9711729Y-14685519D01*
X9711729Y-14685519D02*
X9711729Y-14647424D01*
X9711729Y-14647424D02*
X9702205Y-14628377D01*
X9702205Y-14628377D02*
X9692682Y-14618853D01*
X9692682Y-14618853D02*
X9673634Y-14609329D01*
X9806967Y-14723615D02*
X9845063Y-14723615D01*
X9845063Y-14723615D02*
X9864110Y-14714091D01*
X9864110Y-14714091D02*
X9873634Y-14704567D01*
X9873634Y-14704567D02*
X9892682Y-14675996D01*
X9892682Y-14675996D02*
X9902205Y-14637900D01*
X9902205Y-14637900D02*
X9902205Y-14561710D01*
X9902205Y-14561710D02*
X9892682Y-14542662D01*
X9892682Y-14542662D02*
X9883158Y-14533138D01*
X9883158Y-14533138D02*
X9864110Y-14523615D01*
X9864110Y-14523615D02*
X9826015Y-14523615D01*
X9826015Y-14523615D02*
X9806967Y-14533138D01*
X9806967Y-14533138D02*
X9797444Y-14542662D01*
X9797444Y-14542662D02*
X9787920Y-14561710D01*
X9787920Y-14561710D02*
X9787920Y-14609329D01*
X9787920Y-14609329D02*
X9797444Y-14628377D01*
X9797444Y-14628377D02*
X9806967Y-14637900D01*
X9806967Y-14637900D02*
X9826015Y-14647424D01*
X9826015Y-14647424D02*
X9864110Y-14647424D01*
X9864110Y-14647424D02*
X9883158Y-14637900D01*
X9883158Y-14637900D02*
X9892682Y-14628377D01*
X9892682Y-14628377D02*
X9902205Y-14609329D01*
X9987920Y-14723615D02*
X9987920Y-14590281D01*
X9987920Y-14609329D02*
X9997444Y-14599805D01*
X9997444Y-14599805D02*
X10016491Y-14590281D01*
X10016491Y-14590281D02*
X10045063Y-14590281D01*
X10045063Y-14590281D02*
X10064110Y-14599805D01*
X10064110Y-14599805D02*
X10073634Y-14618853D01*
X10073634Y-14618853D02*
X10073634Y-14723615D01*
X10073634Y-14618853D02*
X10083158Y-14599805D01*
X10083158Y-14599805D02*
X10102205Y-14590281D01*
X10102205Y-14590281D02*
X10130777Y-14590281D01*
X10130777Y-14590281D02*
X10149825Y-14599805D01*
X10149825Y-14599805D02*
X10159348Y-14618853D01*
X10159348Y-14618853D02*
X10159348Y-14723615D01*
X10254586Y-14723615D02*
X10254586Y-14590281D01*
X10254586Y-14609329D02*
X10264110Y-14599805D01*
X10264110Y-14599805D02*
X10283158Y-14590281D01*
X10283158Y-14590281D02*
X10311729Y-14590281D01*
X10311729Y-14590281D02*
X10330777Y-14599805D01*
X10330777Y-14599805D02*
X10340301Y-14618853D01*
X10340301Y-14618853D02*
X10340301Y-14723615D01*
X10340301Y-14618853D02*
X10349825Y-14599805D01*
X10349825Y-14599805D02*
X10368872Y-14590281D01*
X10368872Y-14590281D02*
X10397444Y-14590281D01*
X10397444Y-14590281D02*
X10416491Y-14599805D01*
X10416491Y-14599805D02*
X10426015Y-14618853D01*
X10426015Y-14618853D02*
X10426015Y-14723615D01*
X10816491Y-14514091D02*
X10645063Y-14771234D01*
X11073634Y-14523615D02*
X11092682Y-14523615D01*
X11092682Y-14523615D02*
X11111729Y-14533138D01*
X11111729Y-14533138D02*
X11121253Y-14542662D01*
X11121253Y-14542662D02*
X11130777Y-14561710D01*
X11130777Y-14561710D02*
X11140301Y-14599805D01*
X11140301Y-14599805D02*
X11140301Y-14647424D01*
X11140301Y-14647424D02*
X11130777Y-14685519D01*
X11130777Y-14685519D02*
X11121253Y-14704567D01*
X11121253Y-14704567D02*
X11111729Y-14714091D01*
X11111729Y-14714091D02*
X11092682Y-14723615D01*
X11092682Y-14723615D02*
X11073634Y-14723615D01*
X11073634Y-14723615D02*
X11054587Y-14714091D01*
X11054587Y-14714091D02*
X11045063Y-14704567D01*
X11045063Y-14704567D02*
X11035539Y-14685519D01*
X11035539Y-14685519D02*
X11026015Y-14647424D01*
X11026015Y-14647424D02*
X11026015Y-14599805D01*
X11026015Y-14599805D02*
X11035539Y-14561710D01*
X11035539Y-14561710D02*
X11045063Y-14542662D01*
X11045063Y-14542662D02*
X11054587Y-14533138D01*
X11054587Y-14533138D02*
X11073634Y-14523615D01*
X11226015Y-14704567D02*
X11235539Y-14714091D01*
X11235539Y-14714091D02*
X11226015Y-14723615D01*
X11226015Y-14723615D02*
X11216491Y-14714091D01*
X11216491Y-14714091D02*
X11226015Y-14704567D01*
X11226015Y-14704567D02*
X11226015Y-14723615D01*
X11359348Y-14523615D02*
X11378396Y-14523615D01*
X11378396Y-14523615D02*
X11397444Y-14533138D01*
X11397444Y-14533138D02*
X11406967Y-14542662D01*
X11406967Y-14542662D02*
X11416491Y-14561710D01*
X11416491Y-14561710D02*
X11426015Y-14599805D01*
X11426015Y-14599805D02*
X11426015Y-14647424D01*
X11426015Y-14647424D02*
X11416491Y-14685519D01*
X11416491Y-14685519D02*
X11406967Y-14704567D01*
X11406967Y-14704567D02*
X11397444Y-14714091D01*
X11397444Y-14714091D02*
X11378396Y-14723615D01*
X11378396Y-14723615D02*
X11359348Y-14723615D01*
X11359348Y-14723615D02*
X11340301Y-14714091D01*
X11340301Y-14714091D02*
X11330777Y-14704567D01*
X11330777Y-14704567D02*
X11321253Y-14685519D01*
X11321253Y-14685519D02*
X11311729Y-14647424D01*
X11311729Y-14647424D02*
X11311729Y-14599805D01*
X11311729Y-14599805D02*
X11321253Y-14561710D01*
X11321253Y-14561710D02*
X11330777Y-14542662D01*
X11330777Y-14542662D02*
X11340301Y-14533138D01*
X11340301Y-14533138D02*
X11359348Y-14523615D01*
X11492682Y-14523615D02*
X11616491Y-14523615D01*
X11616491Y-14523615D02*
X11549825Y-14599805D01*
X11549825Y-14599805D02*
X11578396Y-14599805D01*
X11578396Y-14599805D02*
X11597444Y-14609329D01*
X11597444Y-14609329D02*
X11606967Y-14618853D01*
X11606967Y-14618853D02*
X11616491Y-14637900D01*
X11616491Y-14637900D02*
X11616491Y-14685519D01*
X11616491Y-14685519D02*
X11606967Y-14704567D01*
X11606967Y-14704567D02*
X11597444Y-14714091D01*
X11597444Y-14714091D02*
X11578396Y-14723615D01*
X11578396Y-14723615D02*
X11521253Y-14723615D01*
X11521253Y-14723615D02*
X11502206Y-14714091D01*
X11502206Y-14714091D02*
X11492682Y-14704567D01*
X11797444Y-14523615D02*
X11702206Y-14523615D01*
X11702206Y-14523615D02*
X11692682Y-14618853D01*
X11692682Y-14618853D02*
X11702206Y-14609329D01*
X11702206Y-14609329D02*
X11721253Y-14599805D01*
X11721253Y-14599805D02*
X11768872Y-14599805D01*
X11768872Y-14599805D02*
X11787920Y-14609329D01*
X11787920Y-14609329D02*
X11797444Y-14618853D01*
X11797444Y-14618853D02*
X11806967Y-14637900D01*
X11806967Y-14637900D02*
X11806967Y-14685519D01*
X11806967Y-14685519D02*
X11797444Y-14704567D01*
X11797444Y-14704567D02*
X11787920Y-14714091D01*
X11787920Y-14714091D02*
X11768872Y-14723615D01*
X11768872Y-14723615D02*
X11721253Y-14723615D01*
X11721253Y-14723615D02*
X11702206Y-14714091D01*
X11702206Y-14714091D02*
X11692682Y-14704567D01*
X11930777Y-14523615D02*
X11949825Y-14523615D01*
X11949825Y-14523615D02*
X11968872Y-14533138D01*
X11968872Y-14533138D02*
X11978396Y-14542662D01*
X11978396Y-14542662D02*
X11987920Y-14561710D01*
X11987920Y-14561710D02*
X11997444Y-14599805D01*
X11997444Y-14599805D02*
X11997444Y-14647424D01*
X11997444Y-14647424D02*
X11987920Y-14685519D01*
X11987920Y-14685519D02*
X11978396Y-14704567D01*
X11978396Y-14704567D02*
X11968872Y-14714091D01*
X11968872Y-14714091D02*
X11949825Y-14723615D01*
X11949825Y-14723615D02*
X11930777Y-14723615D01*
X11930777Y-14723615D02*
X11911729Y-14714091D01*
X11911729Y-14714091D02*
X11902206Y-14704567D01*
X11902206Y-14704567D02*
X11892682Y-14685519D01*
X11892682Y-14685519D02*
X11883158Y-14647424D01*
X11883158Y-14647424D02*
X11883158Y-14599805D01*
X11883158Y-14599805D02*
X11892682Y-14561710D01*
X11892682Y-14561710D02*
X11902206Y-14542662D01*
X11902206Y-14542662D02*
X11911729Y-14533138D01*
X11911729Y-14533138D02*
X11930777Y-14523615D01*
X12073634Y-14523615D02*
X12073634Y-14561710D01*
X12149825Y-14523615D02*
X12149825Y-14561710D01*
X12445063Y-14799805D02*
X12435539Y-14790281D01*
X12435539Y-14790281D02*
X12416491Y-14761710D01*
X12416491Y-14761710D02*
X12406968Y-14742662D01*
X12406968Y-14742662D02*
X12397444Y-14714091D01*
X12397444Y-14714091D02*
X12387920Y-14666472D01*
X12387920Y-14666472D02*
X12387920Y-14628377D01*
X12387920Y-14628377D02*
X12397444Y-14580757D01*
X12397444Y-14580757D02*
X12406968Y-14552186D01*
X12406968Y-14552186D02*
X12416491Y-14533138D01*
X12416491Y-14533138D02*
X12435539Y-14504567D01*
X12435539Y-14504567D02*
X12445063Y-14495043D01*
X12626015Y-14723615D02*
X12511729Y-14723615D01*
X12568872Y-14723615D02*
X12568872Y-14523615D01*
X12568872Y-14523615D02*
X12549825Y-14552186D01*
X12549825Y-14552186D02*
X12530777Y-14571234D01*
X12530777Y-14571234D02*
X12511729Y-14580757D01*
X12797444Y-14523615D02*
X12759348Y-14523615D01*
X12759348Y-14523615D02*
X12740301Y-14533138D01*
X12740301Y-14533138D02*
X12730777Y-14542662D01*
X12730777Y-14542662D02*
X12711729Y-14571234D01*
X12711729Y-14571234D02*
X12702206Y-14609329D01*
X12702206Y-14609329D02*
X12702206Y-14685519D01*
X12702206Y-14685519D02*
X12711729Y-14704567D01*
X12711729Y-14704567D02*
X12721253Y-14714091D01*
X12721253Y-14714091D02*
X12740301Y-14723615D01*
X12740301Y-14723615D02*
X12778396Y-14723615D01*
X12778396Y-14723615D02*
X12797444Y-14714091D01*
X12797444Y-14714091D02*
X12806968Y-14704567D01*
X12806968Y-14704567D02*
X12816491Y-14685519D01*
X12816491Y-14685519D02*
X12816491Y-14637900D01*
X12816491Y-14637900D02*
X12806968Y-14618853D01*
X12806968Y-14618853D02*
X12797444Y-14609329D01*
X12797444Y-14609329D02*
X12778396Y-14599805D01*
X12778396Y-14599805D02*
X12740301Y-14599805D01*
X12740301Y-14599805D02*
X12721253Y-14609329D01*
X12721253Y-14609329D02*
X12711729Y-14618853D01*
X12711729Y-14618853D02*
X12702206Y-14637900D01*
X13054587Y-14723615D02*
X13054587Y-14523615D01*
X13140301Y-14723615D02*
X13140301Y-14618853D01*
X13140301Y-14618853D02*
X13130777Y-14599805D01*
X13130777Y-14599805D02*
X13111730Y-14590281D01*
X13111730Y-14590281D02*
X13083158Y-14590281D01*
X13083158Y-14590281D02*
X13064110Y-14599805D01*
X13064110Y-14599805D02*
X13054587Y-14609329D01*
X13264110Y-14723615D02*
X13245063Y-14714091D01*
X13245063Y-14714091D02*
X13235539Y-14704567D01*
X13235539Y-14704567D02*
X13226015Y-14685519D01*
X13226015Y-14685519D02*
X13226015Y-14628377D01*
X13226015Y-14628377D02*
X13235539Y-14609329D01*
X13235539Y-14609329D02*
X13245063Y-14599805D01*
X13245063Y-14599805D02*
X13264110Y-14590281D01*
X13264110Y-14590281D02*
X13292682Y-14590281D01*
X13292682Y-14590281D02*
X13311730Y-14599805D01*
X13311730Y-14599805D02*
X13321253Y-14609329D01*
X13321253Y-14609329D02*
X13330777Y-14628377D01*
X13330777Y-14628377D02*
X13330777Y-14685519D01*
X13330777Y-14685519D02*
X13321253Y-14704567D01*
X13321253Y-14704567D02*
X13311730Y-14714091D01*
X13311730Y-14714091D02*
X13292682Y-14723615D01*
X13292682Y-14723615D02*
X13264110Y-14723615D01*
X13445063Y-14723615D02*
X13426015Y-14714091D01*
X13426015Y-14714091D02*
X13416491Y-14695043D01*
X13416491Y-14695043D02*
X13416491Y-14523615D01*
X13597444Y-14714091D02*
X13578396Y-14723615D01*
X13578396Y-14723615D02*
X13540301Y-14723615D01*
X13540301Y-14723615D02*
X13521253Y-14714091D01*
X13521253Y-14714091D02*
X13511730Y-14695043D01*
X13511730Y-14695043D02*
X13511730Y-14618853D01*
X13511730Y-14618853D02*
X13521253Y-14599805D01*
X13521253Y-14599805D02*
X13540301Y-14590281D01*
X13540301Y-14590281D02*
X13578396Y-14590281D01*
X13578396Y-14590281D02*
X13597444Y-14599805D01*
X13597444Y-14599805D02*
X13606968Y-14618853D01*
X13606968Y-14618853D02*
X13606968Y-14637900D01*
X13606968Y-14637900D02*
X13511730Y-14656948D01*
X13683158Y-14714091D02*
X13702206Y-14723615D01*
X13702206Y-14723615D02*
X13740301Y-14723615D01*
X13740301Y-14723615D02*
X13759349Y-14714091D01*
X13759349Y-14714091D02*
X13768872Y-14695043D01*
X13768872Y-14695043D02*
X13768872Y-14685519D01*
X13768872Y-14685519D02*
X13759349Y-14666472D01*
X13759349Y-14666472D02*
X13740301Y-14656948D01*
X13740301Y-14656948D02*
X13711730Y-14656948D01*
X13711730Y-14656948D02*
X13692682Y-14647424D01*
X13692682Y-14647424D02*
X13683158Y-14628377D01*
X13683158Y-14628377D02*
X13683158Y-14618853D01*
X13683158Y-14618853D02*
X13692682Y-14599805D01*
X13692682Y-14599805D02*
X13711730Y-14590281D01*
X13711730Y-14590281D02*
X13740301Y-14590281D01*
X13740301Y-14590281D02*
X13759349Y-14599805D01*
X13835539Y-14799805D02*
X13845063Y-14790281D01*
X13845063Y-14790281D02*
X13864111Y-14761710D01*
X13864111Y-14761710D02*
X13873634Y-14742662D01*
X13873634Y-14742662D02*
X13883158Y-14714091D01*
X13883158Y-14714091D02*
X13892682Y-14666472D01*
X13892682Y-14666472D02*
X13892682Y-14628377D01*
X13892682Y-14628377D02*
X13883158Y-14580757D01*
X13883158Y-14580757D02*
X13873634Y-14552186D01*
X13873634Y-14552186D02*
X13864111Y-14533138D01*
X13864111Y-14533138D02*
X13845063Y-14504567D01*
X13845063Y-14504567D02*
X13835539Y-14495043D01*
D13*
X8820000Y-14846131D02*
X8820000Y-14946131D01*
X8770000Y-14896131D02*
X8870000Y-14896131D01*
D11*
X9235539Y-14987615D02*
X9121253Y-14987615D01*
X9178396Y-14987615D02*
X9178396Y-14787615D01*
X9178396Y-14787615D02*
X9159348Y-14816186D01*
X9159348Y-14816186D02*
X9140301Y-14835234D01*
X9140301Y-14835234D02*
X9121253Y-14844757D01*
X9321253Y-14968567D02*
X9330777Y-14978091D01*
X9330777Y-14978091D02*
X9321253Y-14987615D01*
X9321253Y-14987615D02*
X9311729Y-14978091D01*
X9311729Y-14978091D02*
X9321253Y-14968567D01*
X9321253Y-14968567D02*
X9321253Y-14987615D01*
X9454586Y-14787615D02*
X9473634Y-14787615D01*
X9473634Y-14787615D02*
X9492682Y-14797138D01*
X9492682Y-14797138D02*
X9502205Y-14806662D01*
X9502205Y-14806662D02*
X9511729Y-14825710D01*
X9511729Y-14825710D02*
X9521253Y-14863805D01*
X9521253Y-14863805D02*
X9521253Y-14911424D01*
X9521253Y-14911424D02*
X9511729Y-14949519D01*
X9511729Y-14949519D02*
X9502205Y-14968567D01*
X9502205Y-14968567D02*
X9492682Y-14978091D01*
X9492682Y-14978091D02*
X9473634Y-14987615D01*
X9473634Y-14987615D02*
X9454586Y-14987615D01*
X9454586Y-14987615D02*
X9435539Y-14978091D01*
X9435539Y-14978091D02*
X9426015Y-14968567D01*
X9426015Y-14968567D02*
X9416491Y-14949519D01*
X9416491Y-14949519D02*
X9406967Y-14911424D01*
X9406967Y-14911424D02*
X9406967Y-14863805D01*
X9406967Y-14863805D02*
X9416491Y-14825710D01*
X9416491Y-14825710D02*
X9426015Y-14806662D01*
X9426015Y-14806662D02*
X9435539Y-14797138D01*
X9435539Y-14797138D02*
X9454586Y-14787615D01*
X9645063Y-14787615D02*
X9664110Y-14787615D01*
X9664110Y-14787615D02*
X9683158Y-14797138D01*
X9683158Y-14797138D02*
X9692682Y-14806662D01*
X9692682Y-14806662D02*
X9702205Y-14825710D01*
X9702205Y-14825710D02*
X9711729Y-14863805D01*
X9711729Y-14863805D02*
X9711729Y-14911424D01*
X9711729Y-14911424D02*
X9702205Y-14949519D01*
X9702205Y-14949519D02*
X9692682Y-14968567D01*
X9692682Y-14968567D02*
X9683158Y-14978091D01*
X9683158Y-14978091D02*
X9664110Y-14987615D01*
X9664110Y-14987615D02*
X9645063Y-14987615D01*
X9645063Y-14987615D02*
X9626015Y-14978091D01*
X9626015Y-14978091D02*
X9616491Y-14968567D01*
X9616491Y-14968567D02*
X9606967Y-14949519D01*
X9606967Y-14949519D02*
X9597444Y-14911424D01*
X9597444Y-14911424D02*
X9597444Y-14863805D01*
X9597444Y-14863805D02*
X9606967Y-14825710D01*
X9606967Y-14825710D02*
X9616491Y-14806662D01*
X9616491Y-14806662D02*
X9626015Y-14797138D01*
X9626015Y-14797138D02*
X9645063Y-14787615D01*
X9835539Y-14787615D02*
X9854586Y-14787615D01*
X9854586Y-14787615D02*
X9873634Y-14797138D01*
X9873634Y-14797138D02*
X9883158Y-14806662D01*
X9883158Y-14806662D02*
X9892682Y-14825710D01*
X9892682Y-14825710D02*
X9902205Y-14863805D01*
X9902205Y-14863805D02*
X9902205Y-14911424D01*
X9902205Y-14911424D02*
X9892682Y-14949519D01*
X9892682Y-14949519D02*
X9883158Y-14968567D01*
X9883158Y-14968567D02*
X9873634Y-14978091D01*
X9873634Y-14978091D02*
X9854586Y-14987615D01*
X9854586Y-14987615D02*
X9835539Y-14987615D01*
X9835539Y-14987615D02*
X9816491Y-14978091D01*
X9816491Y-14978091D02*
X9806967Y-14968567D01*
X9806967Y-14968567D02*
X9797444Y-14949519D01*
X9797444Y-14949519D02*
X9787920Y-14911424D01*
X9787920Y-14911424D02*
X9787920Y-14863805D01*
X9787920Y-14863805D02*
X9797444Y-14825710D01*
X9797444Y-14825710D02*
X9806967Y-14806662D01*
X9806967Y-14806662D02*
X9816491Y-14797138D01*
X9816491Y-14797138D02*
X9835539Y-14787615D01*
X9987920Y-14987615D02*
X9987920Y-14854281D01*
X9987920Y-14873329D02*
X9997444Y-14863805D01*
X9997444Y-14863805D02*
X10016491Y-14854281D01*
X10016491Y-14854281D02*
X10045063Y-14854281D01*
X10045063Y-14854281D02*
X10064110Y-14863805D01*
X10064110Y-14863805D02*
X10073634Y-14882853D01*
X10073634Y-14882853D02*
X10073634Y-14987615D01*
X10073634Y-14882853D02*
X10083158Y-14863805D01*
X10083158Y-14863805D02*
X10102205Y-14854281D01*
X10102205Y-14854281D02*
X10130777Y-14854281D01*
X10130777Y-14854281D02*
X10149825Y-14863805D01*
X10149825Y-14863805D02*
X10159348Y-14882853D01*
X10159348Y-14882853D02*
X10159348Y-14987615D01*
X10254586Y-14987615D02*
X10254586Y-14854281D01*
X10254586Y-14873329D02*
X10264110Y-14863805D01*
X10264110Y-14863805D02*
X10283158Y-14854281D01*
X10283158Y-14854281D02*
X10311729Y-14854281D01*
X10311729Y-14854281D02*
X10330777Y-14863805D01*
X10330777Y-14863805D02*
X10340301Y-14882853D01*
X10340301Y-14882853D02*
X10340301Y-14987615D01*
X10340301Y-14882853D02*
X10349825Y-14863805D01*
X10349825Y-14863805D02*
X10368872Y-14854281D01*
X10368872Y-14854281D02*
X10397444Y-14854281D01*
X10397444Y-14854281D02*
X10416491Y-14863805D01*
X10416491Y-14863805D02*
X10426015Y-14882853D01*
X10426015Y-14882853D02*
X10426015Y-14987615D01*
X10816491Y-14778091D02*
X10645063Y-15035234D01*
X11073634Y-14787615D02*
X11092682Y-14787615D01*
X11092682Y-14787615D02*
X11111729Y-14797138D01*
X11111729Y-14797138D02*
X11121253Y-14806662D01*
X11121253Y-14806662D02*
X11130777Y-14825710D01*
X11130777Y-14825710D02*
X11140301Y-14863805D01*
X11140301Y-14863805D02*
X11140301Y-14911424D01*
X11140301Y-14911424D02*
X11130777Y-14949519D01*
X11130777Y-14949519D02*
X11121253Y-14968567D01*
X11121253Y-14968567D02*
X11111729Y-14978091D01*
X11111729Y-14978091D02*
X11092682Y-14987615D01*
X11092682Y-14987615D02*
X11073634Y-14987615D01*
X11073634Y-14987615D02*
X11054587Y-14978091D01*
X11054587Y-14978091D02*
X11045063Y-14968567D01*
X11045063Y-14968567D02*
X11035539Y-14949519D01*
X11035539Y-14949519D02*
X11026015Y-14911424D01*
X11026015Y-14911424D02*
X11026015Y-14863805D01*
X11026015Y-14863805D02*
X11035539Y-14825710D01*
X11035539Y-14825710D02*
X11045063Y-14806662D01*
X11045063Y-14806662D02*
X11054587Y-14797138D01*
X11054587Y-14797138D02*
X11073634Y-14787615D01*
X11226015Y-14968567D02*
X11235539Y-14978091D01*
X11235539Y-14978091D02*
X11226015Y-14987615D01*
X11226015Y-14987615D02*
X11216491Y-14978091D01*
X11216491Y-14978091D02*
X11226015Y-14968567D01*
X11226015Y-14968567D02*
X11226015Y-14987615D01*
X11359348Y-14787615D02*
X11378396Y-14787615D01*
X11378396Y-14787615D02*
X11397444Y-14797138D01*
X11397444Y-14797138D02*
X11406967Y-14806662D01*
X11406967Y-14806662D02*
X11416491Y-14825710D01*
X11416491Y-14825710D02*
X11426015Y-14863805D01*
X11426015Y-14863805D02*
X11426015Y-14911424D01*
X11426015Y-14911424D02*
X11416491Y-14949519D01*
X11416491Y-14949519D02*
X11406967Y-14968567D01*
X11406967Y-14968567D02*
X11397444Y-14978091D01*
X11397444Y-14978091D02*
X11378396Y-14987615D01*
X11378396Y-14987615D02*
X11359348Y-14987615D01*
X11359348Y-14987615D02*
X11340301Y-14978091D01*
X11340301Y-14978091D02*
X11330777Y-14968567D01*
X11330777Y-14968567D02*
X11321253Y-14949519D01*
X11321253Y-14949519D02*
X11311729Y-14911424D01*
X11311729Y-14911424D02*
X11311729Y-14863805D01*
X11311729Y-14863805D02*
X11321253Y-14825710D01*
X11321253Y-14825710D02*
X11330777Y-14806662D01*
X11330777Y-14806662D02*
X11340301Y-14797138D01*
X11340301Y-14797138D02*
X11359348Y-14787615D01*
X11492682Y-14787615D02*
X11616491Y-14787615D01*
X11616491Y-14787615D02*
X11549825Y-14863805D01*
X11549825Y-14863805D02*
X11578396Y-14863805D01*
X11578396Y-14863805D02*
X11597444Y-14873329D01*
X11597444Y-14873329D02*
X11606967Y-14882853D01*
X11606967Y-14882853D02*
X11616491Y-14901900D01*
X11616491Y-14901900D02*
X11616491Y-14949519D01*
X11616491Y-14949519D02*
X11606967Y-14968567D01*
X11606967Y-14968567D02*
X11597444Y-14978091D01*
X11597444Y-14978091D02*
X11578396Y-14987615D01*
X11578396Y-14987615D02*
X11521253Y-14987615D01*
X11521253Y-14987615D02*
X11502206Y-14978091D01*
X11502206Y-14978091D02*
X11492682Y-14968567D01*
X11711729Y-14987615D02*
X11749825Y-14987615D01*
X11749825Y-14987615D02*
X11768872Y-14978091D01*
X11768872Y-14978091D02*
X11778396Y-14968567D01*
X11778396Y-14968567D02*
X11797444Y-14939996D01*
X11797444Y-14939996D02*
X11806967Y-14901900D01*
X11806967Y-14901900D02*
X11806967Y-14825710D01*
X11806967Y-14825710D02*
X11797444Y-14806662D01*
X11797444Y-14806662D02*
X11787920Y-14797138D01*
X11787920Y-14797138D02*
X11768872Y-14787615D01*
X11768872Y-14787615D02*
X11730777Y-14787615D01*
X11730777Y-14787615D02*
X11711729Y-14797138D01*
X11711729Y-14797138D02*
X11702206Y-14806662D01*
X11702206Y-14806662D02*
X11692682Y-14825710D01*
X11692682Y-14825710D02*
X11692682Y-14873329D01*
X11692682Y-14873329D02*
X11702206Y-14892377D01*
X11702206Y-14892377D02*
X11711729Y-14901900D01*
X11711729Y-14901900D02*
X11730777Y-14911424D01*
X11730777Y-14911424D02*
X11768872Y-14911424D01*
X11768872Y-14911424D02*
X11787920Y-14901900D01*
X11787920Y-14901900D02*
X11797444Y-14892377D01*
X11797444Y-14892377D02*
X11806967Y-14873329D01*
X11978396Y-14854281D02*
X11978396Y-14987615D01*
X11930777Y-14778091D02*
X11883158Y-14920948D01*
X11883158Y-14920948D02*
X12006967Y-14920948D01*
X12073634Y-14787615D02*
X12073634Y-14825710D01*
X12149825Y-14787615D02*
X12149825Y-14825710D01*
X12445063Y-15063805D02*
X12435539Y-15054281D01*
X12435539Y-15054281D02*
X12416491Y-15025710D01*
X12416491Y-15025710D02*
X12406968Y-15006662D01*
X12406968Y-15006662D02*
X12397444Y-14978091D01*
X12397444Y-14978091D02*
X12387920Y-14930472D01*
X12387920Y-14930472D02*
X12387920Y-14892377D01*
X12387920Y-14892377D02*
X12397444Y-14844757D01*
X12397444Y-14844757D02*
X12406968Y-14816186D01*
X12406968Y-14816186D02*
X12416491Y-14797138D01*
X12416491Y-14797138D02*
X12435539Y-14768567D01*
X12435539Y-14768567D02*
X12445063Y-14759043D01*
X12559348Y-14787615D02*
X12578396Y-14787615D01*
X12578396Y-14787615D02*
X12597444Y-14797138D01*
X12597444Y-14797138D02*
X12606968Y-14806662D01*
X12606968Y-14806662D02*
X12616491Y-14825710D01*
X12616491Y-14825710D02*
X12626015Y-14863805D01*
X12626015Y-14863805D02*
X12626015Y-14911424D01*
X12626015Y-14911424D02*
X12616491Y-14949519D01*
X12616491Y-14949519D02*
X12606968Y-14968567D01*
X12606968Y-14968567D02*
X12597444Y-14978091D01*
X12597444Y-14978091D02*
X12578396Y-14987615D01*
X12578396Y-14987615D02*
X12559348Y-14987615D01*
X12559348Y-14987615D02*
X12540301Y-14978091D01*
X12540301Y-14978091D02*
X12530777Y-14968567D01*
X12530777Y-14968567D02*
X12521253Y-14949519D01*
X12521253Y-14949519D02*
X12511729Y-14911424D01*
X12511729Y-14911424D02*
X12511729Y-14863805D01*
X12511729Y-14863805D02*
X12521253Y-14825710D01*
X12521253Y-14825710D02*
X12530777Y-14806662D01*
X12530777Y-14806662D02*
X12540301Y-14797138D01*
X12540301Y-14797138D02*
X12559348Y-14787615D01*
X12864110Y-14987615D02*
X12864110Y-14787615D01*
X12949825Y-14987615D02*
X12949825Y-14882853D01*
X12949825Y-14882853D02*
X12940301Y-14863805D01*
X12940301Y-14863805D02*
X12921253Y-14854281D01*
X12921253Y-14854281D02*
X12892682Y-14854281D01*
X12892682Y-14854281D02*
X12873634Y-14863805D01*
X12873634Y-14863805D02*
X12864110Y-14873329D01*
X13073634Y-14987615D02*
X13054587Y-14978091D01*
X13054587Y-14978091D02*
X13045063Y-14968567D01*
X13045063Y-14968567D02*
X13035539Y-14949519D01*
X13035539Y-14949519D02*
X13035539Y-14892377D01*
X13035539Y-14892377D02*
X13045063Y-14873329D01*
X13045063Y-14873329D02*
X13054587Y-14863805D01*
X13054587Y-14863805D02*
X13073634Y-14854281D01*
X13073634Y-14854281D02*
X13102206Y-14854281D01*
X13102206Y-14854281D02*
X13121253Y-14863805D01*
X13121253Y-14863805D02*
X13130777Y-14873329D01*
X13130777Y-14873329D02*
X13140301Y-14892377D01*
X13140301Y-14892377D02*
X13140301Y-14949519D01*
X13140301Y-14949519D02*
X13130777Y-14968567D01*
X13130777Y-14968567D02*
X13121253Y-14978091D01*
X13121253Y-14978091D02*
X13102206Y-14987615D01*
X13102206Y-14987615D02*
X13073634Y-14987615D01*
X13254587Y-14987615D02*
X13235539Y-14978091D01*
X13235539Y-14978091D02*
X13226015Y-14959043D01*
X13226015Y-14959043D02*
X13226015Y-14787615D01*
X13406968Y-14978091D02*
X13387920Y-14987615D01*
X13387920Y-14987615D02*
X13349825Y-14987615D01*
X13349825Y-14987615D02*
X13330777Y-14978091D01*
X13330777Y-14978091D02*
X13321253Y-14959043D01*
X13321253Y-14959043D02*
X13321253Y-14882853D01*
X13321253Y-14882853D02*
X13330777Y-14863805D01*
X13330777Y-14863805D02*
X13349825Y-14854281D01*
X13349825Y-14854281D02*
X13387920Y-14854281D01*
X13387920Y-14854281D02*
X13406968Y-14863805D01*
X13406968Y-14863805D02*
X13416491Y-14882853D01*
X13416491Y-14882853D02*
X13416491Y-14901900D01*
X13416491Y-14901900D02*
X13321253Y-14920948D01*
X13492682Y-14978091D02*
X13511730Y-14987615D01*
X13511730Y-14987615D02*
X13549825Y-14987615D01*
X13549825Y-14987615D02*
X13568872Y-14978091D01*
X13568872Y-14978091D02*
X13578396Y-14959043D01*
X13578396Y-14959043D02*
X13578396Y-14949519D01*
X13578396Y-14949519D02*
X13568872Y-14930472D01*
X13568872Y-14930472D02*
X13549825Y-14920948D01*
X13549825Y-14920948D02*
X13521253Y-14920948D01*
X13521253Y-14920948D02*
X13502206Y-14911424D01*
X13502206Y-14911424D02*
X13492682Y-14892377D01*
X13492682Y-14892377D02*
X13492682Y-14882853D01*
X13492682Y-14882853D02*
X13502206Y-14863805D01*
X13502206Y-14863805D02*
X13521253Y-14854281D01*
X13521253Y-14854281D02*
X13549825Y-14854281D01*
X13549825Y-14854281D02*
X13568872Y-14863805D01*
X13816492Y-14911424D02*
X13968873Y-14911424D01*
X13892682Y-14987615D02*
X13892682Y-14835234D01*
X14302206Y-14854281D02*
X14302206Y-14987615D01*
X14254587Y-14778091D02*
X14206968Y-14920948D01*
X14206968Y-14920948D02*
X14330777Y-14920948D01*
X14549825Y-14978091D02*
X14568873Y-14987615D01*
X14568873Y-14987615D02*
X14606968Y-14987615D01*
X14606968Y-14987615D02*
X14626015Y-14978091D01*
X14626015Y-14978091D02*
X14635539Y-14959043D01*
X14635539Y-14959043D02*
X14635539Y-14949519D01*
X14635539Y-14949519D02*
X14626015Y-14930472D01*
X14626015Y-14930472D02*
X14606968Y-14920948D01*
X14606968Y-14920948D02*
X14578396Y-14920948D01*
X14578396Y-14920948D02*
X14559349Y-14911424D01*
X14559349Y-14911424D02*
X14549825Y-14892377D01*
X14549825Y-14892377D02*
X14549825Y-14882853D01*
X14549825Y-14882853D02*
X14559349Y-14863805D01*
X14559349Y-14863805D02*
X14578396Y-14854281D01*
X14578396Y-14854281D02*
X14606968Y-14854281D01*
X14606968Y-14854281D02*
X14626015Y-14863805D01*
X14749825Y-14987615D02*
X14730777Y-14978091D01*
X14730777Y-14978091D02*
X14721254Y-14959043D01*
X14721254Y-14959043D02*
X14721254Y-14787615D01*
X14854587Y-14987615D02*
X14835539Y-14978091D01*
X14835539Y-14978091D02*
X14826015Y-14968567D01*
X14826015Y-14968567D02*
X14816492Y-14949519D01*
X14816492Y-14949519D02*
X14816492Y-14892377D01*
X14816492Y-14892377D02*
X14826015Y-14873329D01*
X14826015Y-14873329D02*
X14835539Y-14863805D01*
X14835539Y-14863805D02*
X14854587Y-14854281D01*
X14854587Y-14854281D02*
X14883158Y-14854281D01*
X14883158Y-14854281D02*
X14902206Y-14863805D01*
X14902206Y-14863805D02*
X14911730Y-14873329D01*
X14911730Y-14873329D02*
X14921254Y-14892377D01*
X14921254Y-14892377D02*
X14921254Y-14949519D01*
X14921254Y-14949519D02*
X14911730Y-14968567D01*
X14911730Y-14968567D02*
X14902206Y-14978091D01*
X14902206Y-14978091D02*
X14883158Y-14987615D01*
X14883158Y-14987615D02*
X14854587Y-14987615D01*
X14978396Y-14854281D02*
X15054587Y-14854281D01*
X15006968Y-14787615D02*
X15006968Y-14959043D01*
X15006968Y-14959043D02*
X15016492Y-14978091D01*
X15016492Y-14978091D02*
X15035539Y-14987615D01*
X15035539Y-14987615D02*
X15054587Y-14987615D01*
X15111730Y-14978091D02*
X15130777Y-14987615D01*
X15130777Y-14987615D02*
X15168873Y-14987615D01*
X15168873Y-14987615D02*
X15187920Y-14978091D01*
X15187920Y-14978091D02*
X15197444Y-14959043D01*
X15197444Y-14959043D02*
X15197444Y-14949519D01*
X15197444Y-14949519D02*
X15187920Y-14930472D01*
X15187920Y-14930472D02*
X15168873Y-14920948D01*
X15168873Y-14920948D02*
X15140301Y-14920948D01*
X15140301Y-14920948D02*
X15121254Y-14911424D01*
X15121254Y-14911424D02*
X15111730Y-14892377D01*
X15111730Y-14892377D02*
X15111730Y-14882853D01*
X15111730Y-14882853D02*
X15121254Y-14863805D01*
X15121254Y-14863805D02*
X15140301Y-14854281D01*
X15140301Y-14854281D02*
X15168873Y-14854281D01*
X15168873Y-14854281D02*
X15187920Y-14863805D01*
X15264111Y-15063805D02*
X15273635Y-15054281D01*
X15273635Y-15054281D02*
X15292682Y-15025710D01*
X15292682Y-15025710D02*
X15302206Y-15006662D01*
X15302206Y-15006662D02*
X15311730Y-14978091D01*
X15311730Y-14978091D02*
X15321254Y-14930472D01*
X15321254Y-14930472D02*
X15321254Y-14892377D01*
X15321254Y-14892377D02*
X15311730Y-14844757D01*
X15311730Y-14844757D02*
X15302206Y-14816186D01*
X15302206Y-14816186D02*
X15292682Y-14797138D01*
X15292682Y-14797138D02*
X15273635Y-14768567D01*
X15273635Y-14768567D02*
X15264111Y-14759043D01*
D14*
X8855121Y-15196052D02*
X8855121Y-15124209D01*
X8783279Y-15124209D01*
X8783279Y-15196052D01*
X8855121Y-15196052D01*
D11*
X9235539Y-15251615D02*
X9121253Y-15251615D01*
X9178396Y-15251615D02*
X9178396Y-15051615D01*
X9178396Y-15051615D02*
X9159348Y-15080186D01*
X9159348Y-15080186D02*
X9140301Y-15099234D01*
X9140301Y-15099234D02*
X9121253Y-15108757D01*
X9321253Y-15232567D02*
X9330777Y-15242091D01*
X9330777Y-15242091D02*
X9321253Y-15251615D01*
X9321253Y-15251615D02*
X9311729Y-15242091D01*
X9311729Y-15242091D02*
X9321253Y-15232567D01*
X9321253Y-15232567D02*
X9321253Y-15251615D01*
X9454586Y-15051615D02*
X9473634Y-15051615D01*
X9473634Y-15051615D02*
X9492682Y-15061138D01*
X9492682Y-15061138D02*
X9502205Y-15070662D01*
X9502205Y-15070662D02*
X9511729Y-15089710D01*
X9511729Y-15089710D02*
X9521253Y-15127805D01*
X9521253Y-15127805D02*
X9521253Y-15175424D01*
X9521253Y-15175424D02*
X9511729Y-15213519D01*
X9511729Y-15213519D02*
X9502205Y-15232567D01*
X9502205Y-15232567D02*
X9492682Y-15242091D01*
X9492682Y-15242091D02*
X9473634Y-15251615D01*
X9473634Y-15251615D02*
X9454586Y-15251615D01*
X9454586Y-15251615D02*
X9435539Y-15242091D01*
X9435539Y-15242091D02*
X9426015Y-15232567D01*
X9426015Y-15232567D02*
X9416491Y-15213519D01*
X9416491Y-15213519D02*
X9406967Y-15175424D01*
X9406967Y-15175424D02*
X9406967Y-15127805D01*
X9406967Y-15127805D02*
X9416491Y-15089710D01*
X9416491Y-15089710D02*
X9426015Y-15070662D01*
X9426015Y-15070662D02*
X9435539Y-15061138D01*
X9435539Y-15061138D02*
X9454586Y-15051615D01*
X9711729Y-15251615D02*
X9597444Y-15251615D01*
X9654586Y-15251615D02*
X9654586Y-15051615D01*
X9654586Y-15051615D02*
X9635539Y-15080186D01*
X9635539Y-15080186D02*
X9616491Y-15099234D01*
X9616491Y-15099234D02*
X9597444Y-15108757D01*
X9883158Y-15051615D02*
X9845063Y-15051615D01*
X9845063Y-15051615D02*
X9826015Y-15061138D01*
X9826015Y-15061138D02*
X9816491Y-15070662D01*
X9816491Y-15070662D02*
X9797444Y-15099234D01*
X9797444Y-15099234D02*
X9787920Y-15137329D01*
X9787920Y-15137329D02*
X9787920Y-15213519D01*
X9787920Y-15213519D02*
X9797444Y-15232567D01*
X9797444Y-15232567D02*
X9806967Y-15242091D01*
X9806967Y-15242091D02*
X9826015Y-15251615D01*
X9826015Y-15251615D02*
X9864110Y-15251615D01*
X9864110Y-15251615D02*
X9883158Y-15242091D01*
X9883158Y-15242091D02*
X9892682Y-15232567D01*
X9892682Y-15232567D02*
X9902205Y-15213519D01*
X9902205Y-15213519D02*
X9902205Y-15165900D01*
X9902205Y-15165900D02*
X9892682Y-15146853D01*
X9892682Y-15146853D02*
X9883158Y-15137329D01*
X9883158Y-15137329D02*
X9864110Y-15127805D01*
X9864110Y-15127805D02*
X9826015Y-15127805D01*
X9826015Y-15127805D02*
X9806967Y-15137329D01*
X9806967Y-15137329D02*
X9797444Y-15146853D01*
X9797444Y-15146853D02*
X9787920Y-15165900D01*
X9987920Y-15251615D02*
X9987920Y-15118281D01*
X9987920Y-15137329D02*
X9997444Y-15127805D01*
X9997444Y-15127805D02*
X10016491Y-15118281D01*
X10016491Y-15118281D02*
X10045063Y-15118281D01*
X10045063Y-15118281D02*
X10064110Y-15127805D01*
X10064110Y-15127805D02*
X10073634Y-15146853D01*
X10073634Y-15146853D02*
X10073634Y-15251615D01*
X10073634Y-15146853D02*
X10083158Y-15127805D01*
X10083158Y-15127805D02*
X10102205Y-15118281D01*
X10102205Y-15118281D02*
X10130777Y-15118281D01*
X10130777Y-15118281D02*
X10149825Y-15127805D01*
X10149825Y-15127805D02*
X10159348Y-15146853D01*
X10159348Y-15146853D02*
X10159348Y-15251615D01*
X10254586Y-15251615D02*
X10254586Y-15118281D01*
X10254586Y-15137329D02*
X10264110Y-15127805D01*
X10264110Y-15127805D02*
X10283158Y-15118281D01*
X10283158Y-15118281D02*
X10311729Y-15118281D01*
X10311729Y-15118281D02*
X10330777Y-15127805D01*
X10330777Y-15127805D02*
X10340301Y-15146853D01*
X10340301Y-15146853D02*
X10340301Y-15251615D01*
X10340301Y-15146853D02*
X10349825Y-15127805D01*
X10349825Y-15127805D02*
X10368872Y-15118281D01*
X10368872Y-15118281D02*
X10397444Y-15118281D01*
X10397444Y-15118281D02*
X10416491Y-15127805D01*
X10416491Y-15127805D02*
X10426015Y-15146853D01*
X10426015Y-15146853D02*
X10426015Y-15251615D01*
X10816491Y-15042091D02*
X10645063Y-15299234D01*
X11073634Y-15051615D02*
X11092682Y-15051615D01*
X11092682Y-15051615D02*
X11111729Y-15061138D01*
X11111729Y-15061138D02*
X11121253Y-15070662D01*
X11121253Y-15070662D02*
X11130777Y-15089710D01*
X11130777Y-15089710D02*
X11140301Y-15127805D01*
X11140301Y-15127805D02*
X11140301Y-15175424D01*
X11140301Y-15175424D02*
X11130777Y-15213519D01*
X11130777Y-15213519D02*
X11121253Y-15232567D01*
X11121253Y-15232567D02*
X11111729Y-15242091D01*
X11111729Y-15242091D02*
X11092682Y-15251615D01*
X11092682Y-15251615D02*
X11073634Y-15251615D01*
X11073634Y-15251615D02*
X11054587Y-15242091D01*
X11054587Y-15242091D02*
X11045063Y-15232567D01*
X11045063Y-15232567D02*
X11035539Y-15213519D01*
X11035539Y-15213519D02*
X11026015Y-15175424D01*
X11026015Y-15175424D02*
X11026015Y-15127805D01*
X11026015Y-15127805D02*
X11035539Y-15089710D01*
X11035539Y-15089710D02*
X11045063Y-15070662D01*
X11045063Y-15070662D02*
X11054587Y-15061138D01*
X11054587Y-15061138D02*
X11073634Y-15051615D01*
X11226015Y-15232567D02*
X11235539Y-15242091D01*
X11235539Y-15242091D02*
X11226015Y-15251615D01*
X11226015Y-15251615D02*
X11216491Y-15242091D01*
X11216491Y-15242091D02*
X11226015Y-15232567D01*
X11226015Y-15232567D02*
X11226015Y-15251615D01*
X11359348Y-15051615D02*
X11378396Y-15051615D01*
X11378396Y-15051615D02*
X11397444Y-15061138D01*
X11397444Y-15061138D02*
X11406967Y-15070662D01*
X11406967Y-15070662D02*
X11416491Y-15089710D01*
X11416491Y-15089710D02*
X11426015Y-15127805D01*
X11426015Y-15127805D02*
X11426015Y-15175424D01*
X11426015Y-15175424D02*
X11416491Y-15213519D01*
X11416491Y-15213519D02*
X11406967Y-15232567D01*
X11406967Y-15232567D02*
X11397444Y-15242091D01*
X11397444Y-15242091D02*
X11378396Y-15251615D01*
X11378396Y-15251615D02*
X11359348Y-15251615D01*
X11359348Y-15251615D02*
X11340301Y-15242091D01*
X11340301Y-15242091D02*
X11330777Y-15232567D01*
X11330777Y-15232567D02*
X11321253Y-15213519D01*
X11321253Y-15213519D02*
X11311729Y-15175424D01*
X11311729Y-15175424D02*
X11311729Y-15127805D01*
X11311729Y-15127805D02*
X11321253Y-15089710D01*
X11321253Y-15089710D02*
X11330777Y-15070662D01*
X11330777Y-15070662D02*
X11340301Y-15061138D01*
X11340301Y-15061138D02*
X11359348Y-15051615D01*
X11597444Y-15118281D02*
X11597444Y-15251615D01*
X11549825Y-15042091D02*
X11502206Y-15184948D01*
X11502206Y-15184948D02*
X11626015Y-15184948D01*
X11740301Y-15051615D02*
X11759348Y-15051615D01*
X11759348Y-15051615D02*
X11778396Y-15061138D01*
X11778396Y-15061138D02*
X11787920Y-15070662D01*
X11787920Y-15070662D02*
X11797444Y-15089710D01*
X11797444Y-15089710D02*
X11806967Y-15127805D01*
X11806967Y-15127805D02*
X11806967Y-15175424D01*
X11806967Y-15175424D02*
X11797444Y-15213519D01*
X11797444Y-15213519D02*
X11787920Y-15232567D01*
X11787920Y-15232567D02*
X11778396Y-15242091D01*
X11778396Y-15242091D02*
X11759348Y-15251615D01*
X11759348Y-15251615D02*
X11740301Y-15251615D01*
X11740301Y-15251615D02*
X11721253Y-15242091D01*
X11721253Y-15242091D02*
X11711729Y-15232567D01*
X11711729Y-15232567D02*
X11702206Y-15213519D01*
X11702206Y-15213519D02*
X11692682Y-15175424D01*
X11692682Y-15175424D02*
X11692682Y-15127805D01*
X11692682Y-15127805D02*
X11702206Y-15089710D01*
X11702206Y-15089710D02*
X11711729Y-15070662D01*
X11711729Y-15070662D02*
X11721253Y-15061138D01*
X11721253Y-15061138D02*
X11740301Y-15051615D01*
X11930777Y-15051615D02*
X11949825Y-15051615D01*
X11949825Y-15051615D02*
X11968872Y-15061138D01*
X11968872Y-15061138D02*
X11978396Y-15070662D01*
X11978396Y-15070662D02*
X11987920Y-15089710D01*
X11987920Y-15089710D02*
X11997444Y-15127805D01*
X11997444Y-15127805D02*
X11997444Y-15175424D01*
X11997444Y-15175424D02*
X11987920Y-15213519D01*
X11987920Y-15213519D02*
X11978396Y-15232567D01*
X11978396Y-15232567D02*
X11968872Y-15242091D01*
X11968872Y-15242091D02*
X11949825Y-15251615D01*
X11949825Y-15251615D02*
X11930777Y-15251615D01*
X11930777Y-15251615D02*
X11911729Y-15242091D01*
X11911729Y-15242091D02*
X11902206Y-15232567D01*
X11902206Y-15232567D02*
X11892682Y-15213519D01*
X11892682Y-15213519D02*
X11883158Y-15175424D01*
X11883158Y-15175424D02*
X11883158Y-15127805D01*
X11883158Y-15127805D02*
X11892682Y-15089710D01*
X11892682Y-15089710D02*
X11902206Y-15070662D01*
X11902206Y-15070662D02*
X11911729Y-15061138D01*
X11911729Y-15061138D02*
X11930777Y-15051615D01*
X12073634Y-15051615D02*
X12073634Y-15089710D01*
X12149825Y-15051615D02*
X12149825Y-15089710D01*
X12445063Y-15327805D02*
X12435539Y-15318281D01*
X12435539Y-15318281D02*
X12416491Y-15289710D01*
X12416491Y-15289710D02*
X12406968Y-15270662D01*
X12406968Y-15270662D02*
X12397444Y-15242091D01*
X12397444Y-15242091D02*
X12387920Y-15194472D01*
X12387920Y-15194472D02*
X12387920Y-15156377D01*
X12387920Y-15156377D02*
X12397444Y-15108757D01*
X12397444Y-15108757D02*
X12406968Y-15080186D01*
X12406968Y-15080186D02*
X12416491Y-15061138D01*
X12416491Y-15061138D02*
X12435539Y-15032567D01*
X12435539Y-15032567D02*
X12445063Y-15023043D01*
X12606968Y-15051615D02*
X12568872Y-15051615D01*
X12568872Y-15051615D02*
X12549825Y-15061138D01*
X12549825Y-15061138D02*
X12540301Y-15070662D01*
X12540301Y-15070662D02*
X12521253Y-15099234D01*
X12521253Y-15099234D02*
X12511729Y-15137329D01*
X12511729Y-15137329D02*
X12511729Y-15213519D01*
X12511729Y-15213519D02*
X12521253Y-15232567D01*
X12521253Y-15232567D02*
X12530777Y-15242091D01*
X12530777Y-15242091D02*
X12549825Y-15251615D01*
X12549825Y-15251615D02*
X12587920Y-15251615D01*
X12587920Y-15251615D02*
X12606968Y-15242091D01*
X12606968Y-15242091D02*
X12616491Y-15232567D01*
X12616491Y-15232567D02*
X12626015Y-15213519D01*
X12626015Y-15213519D02*
X12626015Y-15165900D01*
X12626015Y-15165900D02*
X12616491Y-15146853D01*
X12616491Y-15146853D02*
X12606968Y-15137329D01*
X12606968Y-15137329D02*
X12587920Y-15127805D01*
X12587920Y-15127805D02*
X12549825Y-15127805D01*
X12549825Y-15127805D02*
X12530777Y-15137329D01*
X12530777Y-15137329D02*
X12521253Y-15146853D01*
X12521253Y-15146853D02*
X12511729Y-15165900D01*
X12864110Y-15251615D02*
X12864110Y-15051615D01*
X12949825Y-15251615D02*
X12949825Y-15146853D01*
X12949825Y-15146853D02*
X12940301Y-15127805D01*
X12940301Y-15127805D02*
X12921253Y-15118281D01*
X12921253Y-15118281D02*
X12892682Y-15118281D01*
X12892682Y-15118281D02*
X12873634Y-15127805D01*
X12873634Y-15127805D02*
X12864110Y-15137329D01*
X13073634Y-15251615D02*
X13054587Y-15242091D01*
X13054587Y-15242091D02*
X13045063Y-15232567D01*
X13045063Y-15232567D02*
X13035539Y-15213519D01*
X13035539Y-15213519D02*
X13035539Y-15156377D01*
X13035539Y-15156377D02*
X13045063Y-15137329D01*
X13045063Y-15137329D02*
X13054587Y-15127805D01*
X13054587Y-15127805D02*
X13073634Y-15118281D01*
X13073634Y-15118281D02*
X13102206Y-15118281D01*
X13102206Y-15118281D02*
X13121253Y-15127805D01*
X13121253Y-15127805D02*
X13130777Y-15137329D01*
X13130777Y-15137329D02*
X13140301Y-15156377D01*
X13140301Y-15156377D02*
X13140301Y-15213519D01*
X13140301Y-15213519D02*
X13130777Y-15232567D01*
X13130777Y-15232567D02*
X13121253Y-15242091D01*
X13121253Y-15242091D02*
X13102206Y-15251615D01*
X13102206Y-15251615D02*
X13073634Y-15251615D01*
X13254587Y-15251615D02*
X13235539Y-15242091D01*
X13235539Y-15242091D02*
X13226015Y-15223043D01*
X13226015Y-15223043D02*
X13226015Y-15051615D01*
X13406968Y-15242091D02*
X13387920Y-15251615D01*
X13387920Y-15251615D02*
X13349825Y-15251615D01*
X13349825Y-15251615D02*
X13330777Y-15242091D01*
X13330777Y-15242091D02*
X13321253Y-15223043D01*
X13321253Y-15223043D02*
X13321253Y-15146853D01*
X13321253Y-15146853D02*
X13330777Y-15127805D01*
X13330777Y-15127805D02*
X13349825Y-15118281D01*
X13349825Y-15118281D02*
X13387920Y-15118281D01*
X13387920Y-15118281D02*
X13406968Y-15127805D01*
X13406968Y-15127805D02*
X13416491Y-15146853D01*
X13416491Y-15146853D02*
X13416491Y-15165900D01*
X13416491Y-15165900D02*
X13321253Y-15184948D01*
X13492682Y-15242091D02*
X13511730Y-15251615D01*
X13511730Y-15251615D02*
X13549825Y-15251615D01*
X13549825Y-15251615D02*
X13568872Y-15242091D01*
X13568872Y-15242091D02*
X13578396Y-15223043D01*
X13578396Y-15223043D02*
X13578396Y-15213519D01*
X13578396Y-15213519D02*
X13568872Y-15194472D01*
X13568872Y-15194472D02*
X13549825Y-15184948D01*
X13549825Y-15184948D02*
X13521253Y-15184948D01*
X13521253Y-15184948D02*
X13502206Y-15175424D01*
X13502206Y-15175424D02*
X13492682Y-15156377D01*
X13492682Y-15156377D02*
X13492682Y-15146853D01*
X13492682Y-15146853D02*
X13502206Y-15127805D01*
X13502206Y-15127805D02*
X13521253Y-15118281D01*
X13521253Y-15118281D02*
X13549825Y-15118281D01*
X13549825Y-15118281D02*
X13568872Y-15127805D01*
X13645063Y-15327805D02*
X13654587Y-15318281D01*
X13654587Y-15318281D02*
X13673634Y-15289710D01*
X13673634Y-15289710D02*
X13683158Y-15270662D01*
X13683158Y-15270662D02*
X13692682Y-15242091D01*
X13692682Y-15242091D02*
X13702206Y-15194472D01*
X13702206Y-15194472D02*
X13702206Y-15156377D01*
X13702206Y-15156377D02*
X13692682Y-15108757D01*
X13692682Y-15108757D02*
X13683158Y-15080186D01*
X13683158Y-15080186D02*
X13673634Y-15061138D01*
X13673634Y-15061138D02*
X13654587Y-15032567D01*
X13654587Y-15032567D02*
X13645063Y-15023043D01*
M02*
