M48
; DRILL file {KiCad 8.0.7} date 2024-12-21T19:49:39+0100
; FORMAT={-:-/ absolute / metric / decimal}
; #@! TF.CreationDate,2024-12-21T19:49:39+01:00
; #@! TF.GenerationSoftware,Kicad,Pcbnew,8.0.7
; #@! TF.FileFunction,Plated,1,2,PTH
FMAT,2
METRIC
; #@! TA.AperFunction,Plated,PTH,ViaDrill
T1C0.300
; #@! TA.AperFunction,Plated,PTH,ComponentDrill
T2C0.889
; #@! TA.AperFunction,Plated,PTH,ComponentDrill
T3C1.000
; #@! TA.AperFunction,Plated,PTH,ComponentDrill
T4C1.016
%
G90
G05
T1
X93.275Y-122.3
X101.025Y-132.225
X110.775Y-119.925
X113.125Y-68.325
X113.125Y-85.825
X113.125Y-103.325
X118.525Y-129.85
X128.275Y-119.925
X130.625Y-68.325
X130.625Y-85.825
X130.625Y-103.325
X136.025Y-129.85
X148.186Y-103.316
X149.102Y-85.812
X150.018Y-68.298
X160.752Y-113.93
X166.461Y-93.329
X168.099Y-76.794
X172.157Y-125.343
X178.931Y-105.799
X179.65Y-59.38
X180.363Y-69.144
X183.706Y-92.424
X185.795Y-72.885
X187.444Y-82.477
X199.38Y-92.325
T2
X165.275Y-120.125
X165.275Y-123.525
X184.855Y-58.905
X184.855Y-61.445
X184.855Y-63.985
X184.855Y-66.525
X184.855Y-69.065
X184.855Y-71.605
X184.855Y-74.145
X200.095Y-58.905
X200.095Y-61.445
X200.095Y-63.985
X200.095Y-66.525
X200.095Y-69.065
X200.095Y-71.605
X200.095Y-74.145
T4
X188.03Y-64.303
X188.03Y-66.208
X191.205Y-57.953
X191.205Y-60.493
X193.745Y-57.953
X193.745Y-60.493
T3
X98.175Y-67.375G85X98.175Y-67.875
G05
X102.375Y-58.875G85X102.375Y-59.375
G05
X102.375Y-61.875G85X102.375Y-62.375
G05
X102.375Y-65.875G85X102.375Y-66.375
G05
M30
