G04 #@! TF.GenerationSoftware,KiCad,Pcbnew,8.0.7*
G04 #@! TF.CreationDate,2024-12-21T19:49:34+01:00*
G04 #@! TF.ProjectId,mint36tt_rev02_R,6d696e74-3336-4747-945f-72657630325f,0.2*
G04 #@! TF.SameCoordinates,Original*
G04 #@! TF.FileFunction,Copper,L2,Bot*
G04 #@! TF.FilePolarity,Positive*
%FSLAX46Y46*%
G04 Gerber Fmt 4.6, Leading zero omitted, Abs format (unit mm)*
G04 Created by KiCad (PCBNEW 8.0.7) date 2024-12-21 19:49:34*
%MOMM*%
%LPD*%
G01*
G04 APERTURE LIST*
G04 Aperture macros list*
%AMRotRect*
0 Rectangle, with rotation*
0 The origin of the aperture is its center*
0 $1 length*
0 $2 width*
0 $3 Rotation angle, in degrees counterclockwise*
0 Add horizontal line*
21,1,$1,$2,0,0,$3*%
G04 Aperture macros list end*
G04 #@! TA.AperFunction,SMDPad,CuDef*
%ADD10RotRect,2.600000X2.600000X270.000001*%
G04 #@! TD*
G04 #@! TA.AperFunction,SMDPad,CuDef*
%ADD11RotRect,2.600000X2.600000X342.000000*%
G04 #@! TD*
G04 #@! TA.AperFunction,SMDPad,CuDef*
%ADD12R,0.900000X1.200000*%
G04 #@! TD*
G04 #@! TA.AperFunction,SMDPad,CuDef*
%ADD13RotRect,0.900000X1.200000X357.000000*%
G04 #@! TD*
G04 #@! TA.AperFunction,SMDPad,CuDef*
%ADD14RotRect,2.600000X2.600000X352.000000*%
G04 #@! TD*
G04 #@! TA.AperFunction,SMDPad,CuDef*
%ADD15RotRect,0.900000X1.200000X342.000000*%
G04 #@! TD*
G04 #@! TA.AperFunction,SMDPad,CuDef*
%ADD16RotRect,2.600000X2.600000X357.000000*%
G04 #@! TD*
G04 #@! TA.AperFunction,ComponentPad*
%ADD17C,1.524000*%
G04 #@! TD*
G04 #@! TA.AperFunction,ComponentPad*
%ADD18C,1.397000*%
G04 #@! TD*
G04 #@! TA.AperFunction,ComponentPad*
%ADD19O,1.700000X2.500000*%
G04 #@! TD*
G04 #@! TA.AperFunction,SMDPad,CuDef*
%ADD20R,2.600000X2.600000*%
G04 #@! TD*
G04 #@! TA.AperFunction,SMDPad,CuDef*
%ADD21RotRect,0.900000X1.200000X352.000000*%
G04 #@! TD*
G04 #@! TA.AperFunction,SMDPad,CuDef*
%ADD22RotRect,0.900000X1.200000X270.000001*%
G04 #@! TD*
G04 #@! TA.AperFunction,ViaPad*
%ADD23C,0.600000*%
G04 #@! TD*
G04 #@! TA.AperFunction,Conductor*
%ADD24C,0.200000*%
G04 #@! TD*
G04 APERTURE END LIST*
D10*
X120725000Y-118300000D03*
X118525000Y-129850000D03*
D11*
X183666875Y-103307386D03*
X193971740Y-108968857D03*
D12*
X116425000Y-103325000D03*
X113125000Y-103325000D03*
D13*
X152397385Y-82879569D03*
X149101907Y-82706861D03*
D14*
X164360351Y-100017465D03*
X175491766Y-103803504D03*
D15*
X179868312Y-130935796D03*
X176729826Y-129916040D03*
D12*
X133925000Y-103325000D03*
X130625000Y-103325000D03*
D10*
X103225000Y-120675000D03*
X101025000Y-132225000D03*
D16*
X147083998Y-90161468D03*
X158503030Y-92962933D03*
D17*
X184855000Y-58905000D03*
X184855000Y-61445000D03*
X184855000Y-63985000D03*
X184855000Y-66525000D03*
X184855000Y-69065000D03*
X184855000Y-71605000D03*
X184855000Y-74145000D03*
X200095000Y-74145000D03*
X200095000Y-71605000D03*
X200095000Y-69065000D03*
X200095000Y-66525000D03*
X200095000Y-63985000D03*
X200095000Y-61445000D03*
X200095000Y-58905000D03*
D18*
X191205000Y-57953000D03*
X193745000Y-57953000D03*
X191205000Y-60493000D03*
X193745000Y-60493000D03*
X188030000Y-66208000D03*
X188030000Y-64303000D03*
D19*
X98175000Y-67625000D03*
X102375000Y-59125000D03*
X102375000Y-62125000D03*
X102375000Y-66125000D03*
D14*
X169231409Y-65358083D03*
X180362824Y-69144122D03*
D20*
X129000000Y-58375000D03*
X140550000Y-60575000D03*
D10*
X138225000Y-118300000D03*
X136025000Y-129850000D03*
D20*
X111500000Y-75875000D03*
X123050000Y-78075000D03*
D17*
X165275000Y-123525000D03*
X165275000Y-120125000D03*
D21*
X167852648Y-110556061D03*
X164584764Y-110096789D03*
D16*
X148915756Y-55209434D03*
X160334788Y-58010899D03*
D20*
X129000000Y-93375000D03*
X140550000Y-95575000D03*
D11*
X189074673Y-86663896D03*
X199379538Y-92325367D03*
D14*
X166795880Y-82687774D03*
X177927295Y-86473813D03*
D11*
X178259078Y-119950875D03*
X188563943Y-125612346D03*
D12*
X133925000Y-85825000D03*
X130625000Y-85825000D03*
X116425000Y-85825000D03*
X113125000Y-85825000D03*
D22*
X110775000Y-123225000D03*
X110775000Y-119925000D03*
D20*
X111500000Y-93375000D03*
X123050000Y-95575000D03*
D21*
X170288177Y-93226370D03*
X167020293Y-92767098D03*
X172723707Y-75896678D03*
X169455823Y-75437406D03*
D12*
X133925000Y-68325000D03*
X130625000Y-68325000D03*
D13*
X151481506Y-100355586D03*
X148186028Y-100182878D03*
X153313265Y-65403552D03*
X150017787Y-65230844D03*
D16*
X147999877Y-72685451D03*
X159418909Y-75486916D03*
D20*
X129000000Y-75875000D03*
X140550000Y-78075000D03*
D12*
X116425000Y-68325000D03*
X113125000Y-68325000D03*
D22*
X128275000Y-123225000D03*
X128275000Y-119925000D03*
D15*
X185276109Y-114292307D03*
X182137623Y-113272551D03*
D20*
X111500000Y-58375000D03*
X123050000Y-60575000D03*
D22*
X93275000Y-125600000D03*
X93275000Y-122300000D03*
D15*
X190683907Y-97648818D03*
X187545421Y-96629062D03*
D23*
X101025000Y-132225000D03*
X118525000Y-129850000D03*
X136025000Y-129850000D03*
X180362824Y-69144122D03*
X199379538Y-92325367D03*
X130625000Y-68325000D03*
X183706221Y-92423779D03*
X150017787Y-68297787D03*
X168099450Y-76793779D03*
X113125000Y-68325000D03*
X178930921Y-105799079D03*
X149101907Y-85811907D03*
X113125000Y-85825000D03*
X166460921Y-93329079D03*
X130625000Y-85825000D03*
X148186028Y-103316028D03*
X113125000Y-103325000D03*
X160751893Y-113929660D03*
X172156893Y-125343107D03*
X130625000Y-103325000D03*
X93275000Y-122300000D03*
X110775000Y-119925000D03*
X128275000Y-119925000D03*
X187443941Y-82477294D03*
X185795000Y-72885000D03*
X179650000Y-59380000D03*
D24*
X106905000Y-126345000D02*
X101025000Y-132225000D01*
X106905000Y-120325000D02*
X106905000Y-126345000D01*
X123050000Y-60575000D02*
X123050000Y-104180000D01*
X123050000Y-104180000D02*
X106905000Y-120325000D01*
X140550000Y-60575000D02*
X140550000Y-104800000D01*
X124875000Y-123500000D02*
X118525000Y-129850000D01*
X140550000Y-104800000D02*
X124875000Y-120475000D01*
X124875000Y-120475000D02*
X124875000Y-123500000D01*
X160334788Y-58010899D02*
X157697500Y-108177500D01*
X136025000Y-129850000D02*
X157697500Y-108177500D01*
X180362824Y-69144122D02*
X175491766Y-103803504D01*
X193971740Y-108968857D02*
X188563943Y-125612346D01*
X199379538Y-92325367D02*
X193971740Y-108968857D01*
X200095000Y-71605000D02*
X197470686Y-71605000D01*
X187545421Y-96629062D02*
X187545421Y-96275421D01*
X183699333Y-92423779D02*
X183550554Y-92275000D01*
X150017787Y-65230844D02*
X150017787Y-68297787D01*
X183550554Y-92155222D02*
X186690263Y-82485000D01*
X187545421Y-96275421D02*
X183706221Y-92436221D01*
X197470686Y-71605000D02*
X187110686Y-81965000D01*
X183706221Y-92423779D02*
X183699333Y-92423779D01*
X169455823Y-75437406D02*
X168099450Y-76793779D01*
X186746608Y-82316650D02*
X186690263Y-82485000D01*
X183706221Y-92436221D02*
X183706221Y-92423779D01*
X183550554Y-92275000D02*
X183550554Y-92155222D01*
X187110686Y-81965000D02*
X186746608Y-82316650D01*
X199445000Y-69065000D02*
X200095000Y-69065000D01*
X186945000Y-81565000D02*
X186394221Y-82101500D01*
X178930921Y-105799079D02*
X178930921Y-105793067D01*
X186394221Y-82101500D02*
X186178798Y-82765000D01*
X178772854Y-105635000D02*
X178772854Y-105575112D01*
X186945000Y-81565000D02*
X199445000Y-69065000D01*
X167020293Y-92769707D02*
X166460921Y-93329079D01*
X182137623Y-113272551D02*
X182137623Y-109005781D01*
X167020293Y-92767098D02*
X167020293Y-92769707D01*
X178772854Y-105575112D02*
X186178798Y-82765000D01*
X178930921Y-105793067D02*
X178772854Y-105635000D01*
X182137623Y-109005781D02*
X178930921Y-105799079D01*
X149101907Y-82706861D02*
X149101907Y-85811907D01*
X148186028Y-100182878D02*
X148186028Y-103316028D01*
X172156893Y-125343107D02*
X172156751Y-125343107D01*
X176729826Y-129916040D02*
X172156893Y-125343107D01*
X197292157Y-70652157D02*
X186852157Y-81092157D01*
X172156751Y-125343107D02*
X171988644Y-125175000D01*
X200095000Y-66525000D02*
X197292157Y-69327843D01*
X186852157Y-81092157D02*
X186036935Y-81891122D01*
X197292157Y-69327843D02*
X197292157Y-70652157D01*
X186036935Y-81891122D02*
X186017985Y-81965000D01*
X171988644Y-125175000D02*
X178341239Y-105609175D01*
X164584764Y-110096789D02*
X160751893Y-113929660D01*
X178341239Y-105609175D02*
X186017985Y-81965000D01*
X128089670Y-122275000D02*
X127475000Y-122275000D01*
X134505000Y-131655000D02*
X166865000Y-131655000D01*
X182931098Y-78351098D02*
X182931098Y-73528902D01*
X128275000Y-122089670D02*
X128089670Y-122275000D01*
X127475000Y-122275000D02*
X127165000Y-122585000D01*
X127165000Y-122585000D02*
X127165000Y-124315000D01*
X166865000Y-131655000D02*
X170685000Y-127835000D01*
X182931098Y-73528902D02*
X184855000Y-71605000D01*
X185769545Y-81375000D02*
X182937843Y-78552157D01*
X182937843Y-78552157D02*
X182931098Y-78351098D01*
X170685000Y-127835000D02*
X185769545Y-81375000D01*
X128275000Y-119925000D02*
X128275000Y-122089670D01*
X127165000Y-124315000D02*
X134505000Y-131655000D01*
X111500000Y-58375000D02*
X111500000Y-64050000D01*
X111500000Y-64050000D02*
X115775000Y-68325000D01*
X115775000Y-68325000D02*
X116425000Y-68325000D01*
X111500000Y-75875000D02*
X111500000Y-81469644D01*
X115855356Y-85825000D02*
X116425000Y-85825000D01*
X111500000Y-81469644D02*
X115855356Y-85825000D01*
X111500000Y-93375000D02*
X111500000Y-99000000D01*
X111500000Y-99000000D02*
X115825000Y-103325000D01*
X115825000Y-103325000D02*
X116425000Y-103325000D01*
X129000000Y-58375000D02*
X129000000Y-63969644D01*
X129000000Y-63969644D02*
X133355356Y-68325000D01*
X133355356Y-68325000D02*
X133925000Y-68325000D01*
X133355356Y-85825000D02*
X133925000Y-85825000D01*
X129000000Y-75875000D02*
X129000000Y-81469644D01*
X129000000Y-81469644D02*
X133355356Y-85825000D01*
X133355356Y-103325000D02*
X133925000Y-103325000D01*
X129000000Y-93375000D02*
X129000000Y-98969644D01*
X129000000Y-98969644D02*
X133355356Y-103325000D01*
X148915756Y-55209434D02*
X148915756Y-61283211D01*
X153036097Y-65403552D02*
X153313265Y-65403552D01*
X148915756Y-61283211D02*
X153036097Y-65403552D01*
X152120218Y-82879569D02*
X152397385Y-82879569D01*
X147999877Y-78759228D02*
X152120218Y-82879569D01*
X147999877Y-72685451D02*
X147999877Y-78759228D01*
X151204339Y-100355586D02*
X151481506Y-100355586D01*
X147083998Y-90161468D02*
X147083998Y-96235245D01*
X147083998Y-96235245D02*
X151204339Y-100355586D01*
X169231409Y-72404380D02*
X172723707Y-75896678D01*
X169231409Y-65358083D02*
X169231409Y-72404380D01*
X166795880Y-89734073D02*
X170288177Y-93226370D01*
X166795880Y-82687774D02*
X166795880Y-89734073D01*
X164360351Y-107063764D02*
X167852648Y-110556061D01*
X164360351Y-100017465D02*
X164360351Y-107063764D01*
X189074673Y-86663896D02*
X188042987Y-87695582D01*
X188042987Y-95007898D02*
X190683907Y-97648818D01*
X188042987Y-87695582D02*
X188042987Y-95007898D01*
X182635189Y-104339072D02*
X182635189Y-111651387D01*
X183666875Y-103307386D02*
X182635189Y-104339072D01*
X182635189Y-111651387D02*
X185276109Y-114292307D01*
X177227392Y-120982561D02*
X177227392Y-128294876D01*
X177227392Y-128294876D02*
X179868312Y-130935796D01*
X178259078Y-119950875D02*
X177227392Y-120982561D01*
X132630356Y-118300000D02*
X128275000Y-122655356D01*
X128275000Y-122655356D02*
X128275000Y-123225000D01*
X138225000Y-118300000D02*
X132630356Y-118300000D01*
X115130356Y-118300000D02*
X110775000Y-122655356D01*
X110775000Y-122655356D02*
X110775000Y-123225000D01*
X120725000Y-118300000D02*
X115130356Y-118300000D01*
X103225000Y-120675000D02*
X97630356Y-120675000D01*
X97630356Y-120675000D02*
X93275000Y-125030356D01*
X93275000Y-125030356D02*
X93275000Y-125600000D01*
X187443941Y-82197431D02*
X195496372Y-74145000D01*
X187443941Y-82477294D02*
X187443941Y-82197431D01*
X195496372Y-74145000D02*
X200095000Y-74145000D01*
X194695000Y-63985000D02*
X185795000Y-72885000D01*
X200095000Y-63985000D02*
X194695000Y-63985000D01*
X184540686Y-80720686D02*
X185311456Y-81490603D01*
X165275000Y-123525000D02*
X171644363Y-123525000D01*
X182531098Y-66198902D02*
X183385000Y-65345000D01*
X186243355Y-65345000D02*
X187355848Y-64232507D01*
X184540686Y-80720686D02*
X182531098Y-78711098D01*
X183385000Y-65345000D02*
X186243355Y-65345000D01*
X185311456Y-81490603D02*
X185204183Y-81761112D01*
X171644363Y-123525000D02*
X185204183Y-81761112D01*
X182531098Y-78711098D02*
X182531098Y-66198902D01*
X187355848Y-64232507D02*
X187834083Y-64082534D01*
X165275000Y-120125000D02*
X172308268Y-120125000D01*
X182131098Y-78881489D02*
X182131098Y-61861098D01*
X182131098Y-61861098D02*
X179650000Y-59380000D01*
X172308268Y-120125000D02*
X184824609Y-81575000D01*
X184824609Y-81575000D02*
X182131098Y-78881489D01*
M02*
