G04 #@! TF.GenerationSoftware,KiCad,Pcbnew,8.0.7*
G04 #@! TF.CreationDate,2024-12-21T19:43:24+01:00*
G04 #@! TF.ProjectId,mint36tt_rev02_L,6d696e74-3336-4747-945f-72657630325f,0.2*
G04 #@! TF.SameCoordinates,Original*
G04 #@! TF.FileFunction,Soldermask,Top*
G04 #@! TF.FilePolarity,Negative*
%FSLAX46Y46*%
G04 Gerber Fmt 4.6, Leading zero omitted, Abs format (unit mm)*
G04 Created by KiCad (PCBNEW 8.0.7) date 2024-12-21 19:43:24*
%MOMM*%
%LPD*%
G01*
G04 APERTURE LIST*
%ADD10C,1.524000*%
%ADD11C,1.701800*%
%ADD12C,3.000000*%
%ADD13C,3.429000*%
%ADD14C,1.397000*%
%ADD15C,0.900000*%
%ADD16R,0.700000X1.000000*%
%ADD17R,1.000000X2.800000*%
%ADD18C,1.200000*%
%ADD19O,1.700000X2.500000*%
G04 APERTURE END LIST*
D10*
X128990000Y-121715000D03*
X128990000Y-118315000D03*
D11*
X109499052Y-126511285D03*
D12*
X112891212Y-119152906D03*
X112891212Y-119152906D03*
D13*
X114729863Y-124811692D03*
D12*
X118326332Y-119700145D03*
D11*
X119960674Y-123112099D03*
X119607598Y-87991113D03*
D12*
X124225992Y-81333566D03*
X124225992Y-81333566D03*
D13*
X125054072Y-87225661D03*
D12*
X129483513Y-82816290D03*
D11*
X130500546Y-86460209D03*
X156490000Y-97515000D03*
D12*
X161990000Y-91565000D03*
X161990000Y-91565000D03*
D13*
X161990000Y-97515000D03*
D12*
X166990000Y-93765000D03*
D11*
X167490000Y-97515000D03*
X122043127Y-105320804D03*
D12*
X126661521Y-98663257D03*
X126661521Y-98663257D03*
D13*
X127489601Y-104555352D03*
D12*
X131919042Y-100145981D03*
D11*
X132936075Y-103789900D03*
X104091255Y-109867796D03*
D12*
X107483415Y-102509417D03*
X107483415Y-102509417D03*
D13*
X109322066Y-108168203D03*
D12*
X112918535Y-103056656D03*
D11*
X114552877Y-106468610D03*
X173990000Y-62515000D03*
D12*
X179490000Y-56565000D03*
X179490000Y-56565000D03*
D13*
X179490000Y-62515000D03*
D12*
X184490000Y-58765000D03*
D11*
X184990000Y-62515000D03*
D10*
X94170000Y-57095000D03*
X94170000Y-59635000D03*
X94170000Y-62175000D03*
X94170000Y-64715000D03*
X94170000Y-67255000D03*
X94170000Y-69795000D03*
X94170000Y-72335000D03*
X109410000Y-72335000D03*
X109410000Y-69795000D03*
X109410000Y-67255000D03*
X109410000Y-64715000D03*
X109410000Y-62175000D03*
X109410000Y-59635000D03*
X109410000Y-57095000D03*
D14*
X100520000Y-56143000D03*
X103060000Y-56143000D03*
X100520000Y-58683000D03*
X103060000Y-58683000D03*
X97345000Y-64398000D03*
X97345000Y-62493000D03*
D11*
X161990000Y-125265000D03*
D12*
X156040000Y-119765000D03*
X156040000Y-119765000D03*
D13*
X161990000Y-119765000D03*
D12*
X158240000Y-114765000D03*
D11*
X161990000Y-114265000D03*
X156490000Y-80015000D03*
D12*
X161990000Y-74065000D03*
X161990000Y-74065000D03*
D13*
X161990000Y-80015000D03*
D12*
X166990000Y-76265000D03*
D11*
X167490000Y-80015000D03*
X117172069Y-70661422D03*
D12*
X121790463Y-64003875D03*
X121790463Y-64003875D03*
D13*
X122618543Y-69895970D03*
D12*
X127047984Y-65486599D03*
D11*
X128065017Y-69130518D03*
D15*
X115615000Y-55720000D03*
X118615000Y-55770000D03*
D16*
X119365000Y-57570000D03*
X116365000Y-57570000D03*
X114865000Y-57570000D03*
D17*
X120965000Y-55670000D03*
X113015000Y-55670000D03*
D18*
X193990000Y-55515000D03*
X193990000Y-62515000D03*
D19*
X191890000Y-65815000D03*
X196090000Y-57315000D03*
X196090000Y-60315000D03*
X196090000Y-64315000D03*
D11*
X98683457Y-93224306D03*
D12*
X102075617Y-85865927D03*
X102075617Y-85865927D03*
D13*
X103914268Y-91524713D03*
D12*
X107510737Y-86413166D03*
D11*
X109145079Y-89825120D03*
X173990000Y-80015000D03*
D12*
X179490000Y-74065000D03*
X179490000Y-74065000D03*
D13*
X179490000Y-80015000D03*
D12*
X184490000Y-76265000D03*
D11*
X184990000Y-80015000D03*
X136897669Y-59800528D03*
D12*
X142078732Y-53570834D03*
X142078732Y-53570834D03*
D13*
X142390131Y-59512680D03*
D12*
X147187019Y-55506139D03*
D11*
X147882593Y-59224832D03*
X179490000Y-125265000D03*
D12*
X173540000Y-119765000D03*
X173540000Y-119765000D03*
D13*
X179490000Y-119765000D03*
D12*
X175740000Y-114765000D03*
D11*
X179490000Y-114265000D03*
X138729427Y-94752562D03*
D12*
X143910490Y-88522868D03*
X143910490Y-88522868D03*
D13*
X144221889Y-94464714D03*
D12*
X149018777Y-90458173D03*
D11*
X149714351Y-94176866D03*
X196990000Y-127640000D03*
D12*
X191040000Y-122140000D03*
X191040000Y-122140000D03*
D13*
X196990000Y-122140000D03*
D12*
X193240000Y-117140000D03*
D11*
X196990000Y-116640000D03*
X156490000Y-62515000D03*
D12*
X161990000Y-56565000D03*
X161990000Y-56565000D03*
D13*
X161990000Y-62515000D03*
D12*
X166990000Y-58765000D03*
D11*
X167490000Y-62515000D03*
X137813548Y-77276545D03*
D12*
X142994611Y-71046851D03*
X142994611Y-71046851D03*
D13*
X143306010Y-76988697D03*
D12*
X148102898Y-72982156D03*
D11*
X148798472Y-76700849D03*
X173990000Y-97515000D03*
D12*
X179490000Y-91565000D03*
X179490000Y-91565000D03*
D13*
X179490000Y-97515000D03*
D12*
X184490000Y-93765000D03*
D11*
X184990000Y-97515000D03*
M02*
