G04 #@! TF.GenerationSoftware,KiCad,Pcbnew,8.0.7*
G04 #@! TF.CreationDate,2024-12-21T19:43:24+01:00*
G04 #@! TF.ProjectId,mint36tt_rev02_L,6d696e74-3336-4747-945f-72657630325f,0.2*
G04 #@! TF.SameCoordinates,Original*
G04 #@! TF.FileFunction,Paste,Bot*
G04 #@! TF.FilePolarity,Positive*
%FSLAX46Y46*%
G04 Gerber Fmt 4.6, Leading zero omitted, Abs format (unit mm)*
G04 Created by KiCad (PCBNEW 8.0.7) date 2024-12-21 19:43:24*
%MOMM*%
%LPD*%
G01*
G04 APERTURE LIST*
G04 Aperture macros list*
%AMRotRect*
0 Rectangle, with rotation*
0 The origin of the aperture is its center*
0 $1 length*
0 $2 width*
0 $3 Rotation angle, in degrees counterclockwise*
0 Add horizontal line*
21,1,$1,$2,0,0,$3*%
G04 Aperture macros list end*
%ADD10RotRect,2.600000X2.600000X18.000000*%
%ADD11R,0.900000X1.200000*%
%ADD12RotRect,2.600000X2.600000X8.000000*%
%ADD13RotRect,0.900000X1.200000X89.999999*%
%ADD14R,2.600000X2.600000*%
%ADD15RotRect,0.900000X1.200000X18.000000*%
%ADD16RotRect,0.900000X1.200000X3.000000*%
%ADD17RotRect,2.600000X2.600000X89.999999*%
%ADD18RotRect,0.900000X1.200000X8.000000*%
%ADD19RotRect,2.600000X2.600000X3.000000*%
G04 APERTURE END LIST*
D10*
X109776502Y-120164936D03*
X121441042Y-118688114D03*
D11*
X181140000Y-84015000D03*
X177840000Y-84015000D03*
D12*
X120982864Y-81789358D03*
X132726641Y-82360498D03*
D13*
X200990000Y-120490000D03*
X200990000Y-123790000D03*
D14*
X158715000Y-91565000D03*
X170265000Y-93765000D03*
D12*
X123418393Y-99119049D03*
X135162170Y-99690189D03*
D11*
X163640000Y-101515000D03*
X160340000Y-101515000D03*
D15*
X117535174Y-128106040D03*
X114396688Y-129125796D03*
D10*
X104368705Y-103521447D03*
X116033245Y-102044625D03*
D14*
X176215000Y-56565000D03*
X187765000Y-58765000D03*
D13*
X183490000Y-118115000D03*
X183490000Y-121415000D03*
D11*
X181140000Y-66515000D03*
X177840000Y-66515000D03*
D16*
X144247213Y-63420844D03*
X140951735Y-63593552D03*
X145163093Y-80896861D03*
X141867615Y-81069569D03*
D17*
X156040000Y-123040000D03*
X158240000Y-111490000D03*
D15*
X106719579Y-94819062D03*
X103581093Y-95838818D03*
D14*
X158715000Y-74065000D03*
X170265000Y-76265000D03*
D12*
X118547335Y-64459667D03*
X130291112Y-65030807D03*
D11*
X163640000Y-66515000D03*
X160340000Y-66515000D03*
D15*
X112127377Y-111462551D03*
X108988891Y-112482307D03*
D11*
X181140000Y-101515000D03*
X177840000Y-101515000D03*
D10*
X98960907Y-86877957D03*
X110625447Y-85401135D03*
D14*
X176215000Y-74065000D03*
X187765000Y-76265000D03*
D11*
X163640000Y-84015000D03*
X160340000Y-84015000D03*
D18*
X129680236Y-108286789D03*
X126412352Y-108746061D03*
D19*
X138808220Y-53742235D03*
X150457531Y-55334739D03*
D18*
X124809177Y-73627406D03*
X121541293Y-74086678D03*
X127244707Y-90957098D03*
X123976823Y-91416370D03*
D17*
X173540000Y-123040000D03*
X175740000Y-111490000D03*
D19*
X140639978Y-88694269D03*
X152289289Y-90286773D03*
D13*
X165990000Y-118115000D03*
X165990000Y-121415000D03*
D16*
X146078972Y-98372878D03*
X142783494Y-98545586D03*
D17*
X191040000Y-125415000D03*
X193240000Y-113865000D03*
D14*
X158715000Y-56565000D03*
X170265000Y-58765000D03*
D19*
X139724099Y-71218252D03*
X151373410Y-72810756D03*
D14*
X176215000Y-91565000D03*
X187765000Y-93765000D03*
M02*
