G04 #@! TF.GenerationSoftware,KiCad,Pcbnew,8.0.7*
G04 #@! TF.CreationDate,2024-12-21T19:43:24+01:00*
G04 #@! TF.ProjectId,mint36tt_rev02_L,6d696e74-3336-4747-945f-72657630325f,0.2*
G04 #@! TF.SameCoordinates,Original*
G04 #@! TF.FileFunction,Profile,NP*
%FSLAX46Y46*%
G04 Gerber Fmt 4.6, Leading zero omitted, Abs format (unit mm)*
G04 Created by KiCad (PCBNEW 8.0.7) date 2024-12-21 19:43:24*
%MOMM*%
%LPD*%
G01*
G04 APERTURE LIST*
G04 #@! TA.AperFunction,Profile*
%ADD10C,0.150000*%
G04 #@! TD*
G04 #@! TA.AperFunction,Profile*
%ADD11C,0.200000*%
G04 #@! TD*
G04 #@! TA.AperFunction,Profile*
%ADD12C,0.120000*%
G04 #@! TD*
G04 APERTURE END LIST*
D10*
X108132478Y-131690000D02*
X109336731Y-135396309D01*
X133562020Y-51563814D02*
X133695722Y-54115000D01*
X92790000Y-131690000D02*
X108132478Y-131690000D01*
D11*
X200090000Y-105015000D02*
G75*
G02*
X196890000Y-105015000I-1600000J0D01*
G01*
X196890000Y-105015000D02*
G75*
G02*
X200090000Y-105015000I1600000J0D01*
G01*
X150590000Y-110015000D02*
G75*
G02*
X147390000Y-110015000I-1600000J0D01*
G01*
X147390000Y-110015000D02*
G75*
G02*
X150590000Y-110015000I1600000J0D01*
G01*
D10*
X150518778Y-54115000D02*
X150338997Y-50684570D01*
X200490000Y-131690000D02*
X205490000Y-131690000D01*
D11*
X200090000Y-70015000D02*
G75*
G02*
X196890000Y-70015000I-1600000J0D01*
G01*
X196890000Y-70015000D02*
G75*
G02*
X200090000Y-70015000I1600000J0D01*
G01*
D10*
X120743578Y-131690000D02*
X200490000Y-131690000D01*
D11*
X127590000Y-56015000D02*
G75*
G02*
X124390000Y-56015000I-1600000J0D01*
G01*
X124390000Y-56015000D02*
G75*
G02*
X127590000Y-56015000I1600000J0D01*
G01*
D10*
X205490000Y-112815000D02*
X200490000Y-112815000D01*
X92790000Y-54115000D02*
X92790000Y-112815000D01*
X133695722Y-54115000D02*
X92790000Y-54115000D01*
X109336731Y-135396309D02*
X120743578Y-131690000D01*
X92790000Y-112815000D02*
X92790000Y-131690000D01*
X200490000Y-54115000D02*
X150518778Y-54115000D01*
X200490000Y-112815000D02*
X200490000Y-54115000D01*
X205490000Y-131690000D02*
X205490000Y-112815000D01*
X150338997Y-50684570D02*
X133562020Y-51563814D01*
D11*
X96590000Y-129515000D02*
G75*
G02*
X93390000Y-129515000I-1600000J0D01*
G01*
X93390000Y-129515000D02*
G75*
G02*
X96590000Y-129515000I1600000J0D01*
G01*
D12*
X97091000Y-63966200D02*
X97091000Y-62924800D01*
X97776800Y-62239000D02*
X99377000Y-62239000D01*
X99377000Y-64652000D02*
X97776800Y-64652000D01*
X99758000Y-62620000D02*
X99758000Y-64271000D01*
X100266000Y-58251200D02*
X100266000Y-56574800D01*
X100951800Y-55889000D02*
X102628200Y-55889000D01*
X100951800Y-58937000D02*
X102628200Y-58937000D01*
X103314000Y-58251200D02*
X103314000Y-56574800D01*
X97091000Y-63966200D02*
G75*
G02*
X97776800Y-64652000I247753J-438047D01*
G01*
X97776800Y-62239000D02*
G75*
G02*
X97091000Y-62924800I-438047J-247753D01*
G01*
X99377000Y-62239000D02*
G75*
G02*
X99758000Y-62620000I1J-380999D01*
G01*
X99758000Y-64271000D02*
G75*
G02*
X99377000Y-64652000I-380999J-1D01*
G01*
X100266000Y-58251200D02*
G75*
G02*
X100951800Y-58937000I247753J-438047D01*
G01*
X100951800Y-55889000D02*
G75*
G02*
X100266000Y-56574800I-438047J-247753D01*
G01*
X102628200Y-58937000D02*
G75*
G02*
X103314000Y-58251200I438047J247753D01*
G01*
X103314000Y-56574800D02*
G75*
G02*
X102628200Y-55889000I-247750J438050D01*
G01*
M02*
