M48
; DRILL file {KiCad 8.0.7} date 2024-12-21T19:43:31+0100
; FORMAT={-:-/ absolute / metric / decimal}
; #@! TF.CreationDate,2024-12-21T19:43:31+01:00
; #@! TF.GenerationSoftware,Kicad,Pcbnew,8.0.7
; #@! TF.FileFunction,NonPlated,1,2,NPTH
FMAT,2
METRIC
; #@! TA.AperFunction,NonPlated,NPTH,ComponentDrill
T1C0.900
; #@! TA.AperFunction,NonPlated,NPTH,ComponentDrill
T2C1.200
; #@! TA.AperFunction,NonPlated,NPTH,ComponentDrill
T3C1.702
; #@! TA.AperFunction,NonPlated,NPTH,ComponentDrill
T4C3.000
; #@! TA.AperFunction,NonPlated,NPTH,ComponentDrill
T5C3.429
%
G90
G05
T1
X115.615Y-55.72
X118.615Y-55.77
T2
X193.99Y-55.515
X193.99Y-62.515
T3
X98.683Y-93.224
X104.091Y-109.868
X109.145Y-89.825
X109.499Y-126.511
X114.553Y-106.469
X117.172Y-70.661
X119.608Y-87.991
X119.961Y-123.112
X122.043Y-105.321
X128.065Y-69.131
X130.501Y-86.46
X132.936Y-103.79
X136.898Y-59.801
X137.814Y-77.277
X138.729Y-94.753
X147.883Y-59.225
X148.798Y-76.701
X149.714Y-94.177
X156.49Y-62.515
X156.49Y-80.015
X156.49Y-97.515
X161.99Y-114.265
X161.99Y-125.265
X167.49Y-62.515
X167.49Y-80.015
X167.49Y-97.515
X173.99Y-62.515
X173.99Y-80.015
X173.99Y-97.515
X179.49Y-114.265
X179.49Y-125.265
X184.99Y-62.515
X184.99Y-80.015
X184.99Y-97.515
X196.99Y-116.64
X196.99Y-127.64
T4
X102.076Y-85.866
X102.076Y-85.866
X107.483Y-102.509
X107.483Y-102.509
X107.511Y-86.413
X112.891Y-119.153
X112.891Y-119.153
X112.919Y-103.057
X118.326Y-119.7
X121.79Y-64.004
X121.79Y-64.004
X124.226Y-81.334
X124.226Y-81.334
X126.662Y-98.663
X126.662Y-98.663
X127.048Y-65.487
X129.484Y-82.816
X131.919Y-100.146
X142.079Y-53.571
X142.079Y-53.571
X142.995Y-71.047
X142.995Y-71.047
X143.91Y-88.523
X143.91Y-88.523
X147.187Y-55.506
X148.103Y-72.982
X149.019Y-90.458
X156.04Y-119.765
X156.04Y-119.765
X158.24Y-114.765
X161.99Y-56.565
X161.99Y-56.565
X161.99Y-74.065
X161.99Y-74.065
X161.99Y-91.565
X161.99Y-91.565
X166.99Y-58.765
X166.99Y-76.265
X166.99Y-93.765
X173.54Y-119.765
X173.54Y-119.765
X175.74Y-114.765
X179.49Y-56.565
X179.49Y-56.565
X179.49Y-74.065
X179.49Y-74.065
X179.49Y-91.565
X179.49Y-91.565
X184.49Y-58.765
X184.49Y-76.265
X184.49Y-93.765
X191.04Y-122.14
X191.04Y-122.14
X193.24Y-117.14
T5
X103.914Y-91.525
X109.322Y-108.168
X114.73Y-124.812
X122.619Y-69.896
X125.054Y-87.226
X127.49Y-104.555
X142.39Y-59.513
X143.306Y-76.989
X144.222Y-94.465
X161.99Y-62.515
X161.99Y-80.015
X161.99Y-97.515
X161.99Y-119.765
X179.49Y-62.515
X179.49Y-80.015
X179.49Y-97.515
X179.49Y-119.765
X196.99Y-122.14
M30
