G04 #@! TF.GenerationSoftware,KiCad,Pcbnew,8.0.7*
G04 #@! TF.CreationDate,2024-12-21T19:43:23+01:00*
G04 #@! TF.ProjectId,mint36tt_rev02_L,6d696e74-3336-4747-945f-72657630325f,0.2*
G04 #@! TF.SameCoordinates,Original*
G04 #@! TF.FileFunction,Copper,L2,Bot*
G04 #@! TF.FilePolarity,Positive*
%FSLAX46Y46*%
G04 Gerber Fmt 4.6, Leading zero omitted, Abs format (unit mm)*
G04 Created by KiCad (PCBNEW 8.0.7) date 2024-12-21 19:43:23*
%MOMM*%
%LPD*%
G01*
G04 APERTURE LIST*
G04 Aperture macros list*
%AMRotRect*
0 Rectangle, with rotation*
0 The origin of the aperture is its center*
0 $1 length*
0 $2 width*
0 $3 Rotation angle, in degrees counterclockwise*
0 Add horizontal line*
21,1,$1,$2,0,0,$3*%
G04 Aperture macros list end*
G04 #@! TA.AperFunction,ComponentPad*
%ADD10C,1.524000*%
G04 #@! TD*
G04 #@! TA.AperFunction,SMDPad,CuDef*
%ADD11RotRect,2.600000X2.600000X18.000000*%
G04 #@! TD*
G04 #@! TA.AperFunction,SMDPad,CuDef*
%ADD12R,0.900000X1.200000*%
G04 #@! TD*
G04 #@! TA.AperFunction,SMDPad,CuDef*
%ADD13RotRect,2.600000X2.600000X8.000000*%
G04 #@! TD*
G04 #@! TA.AperFunction,SMDPad,CuDef*
%ADD14RotRect,0.900000X1.200000X89.999999*%
G04 #@! TD*
G04 #@! TA.AperFunction,SMDPad,CuDef*
%ADD15R,2.600000X2.600000*%
G04 #@! TD*
G04 #@! TA.AperFunction,SMDPad,CuDef*
%ADD16RotRect,0.900000X1.200000X18.000000*%
G04 #@! TD*
G04 #@! TA.AperFunction,SMDPad,CuDef*
%ADD17RotRect,0.900000X1.200000X3.000000*%
G04 #@! TD*
G04 #@! TA.AperFunction,ComponentPad*
%ADD18C,1.397000*%
G04 #@! TD*
G04 #@! TA.AperFunction,SMDPad,CuDef*
%ADD19RotRect,2.600000X2.600000X89.999999*%
G04 #@! TD*
G04 #@! TA.AperFunction,ComponentPad*
%ADD20O,1.700000X2.500000*%
G04 #@! TD*
G04 #@! TA.AperFunction,SMDPad,CuDef*
%ADD21RotRect,0.900000X1.200000X8.000000*%
G04 #@! TD*
G04 #@! TA.AperFunction,SMDPad,CuDef*
%ADD22RotRect,2.600000X2.600000X3.000000*%
G04 #@! TD*
G04 #@! TA.AperFunction,ViaPad*
%ADD23C,0.600000*%
G04 #@! TD*
G04 #@! TA.AperFunction,Conductor*
%ADD24C,0.200000*%
G04 #@! TD*
G04 APERTURE END LIST*
D10*
X128990000Y-121715000D03*
X128990000Y-118315000D03*
D11*
X109776502Y-120164936D03*
X121441042Y-118688114D03*
D12*
X181140000Y-84015000D03*
X177840000Y-84015000D03*
D13*
X120982864Y-81789358D03*
X132726641Y-82360498D03*
D14*
X200990000Y-120490000D03*
X200990000Y-123790000D03*
D15*
X158715000Y-91565000D03*
X170265000Y-93765000D03*
D13*
X123418393Y-99119049D03*
X135162170Y-99690189D03*
D12*
X163640000Y-101515000D03*
X160340000Y-101515000D03*
D16*
X117535174Y-128106040D03*
X114396688Y-129125796D03*
D11*
X104368705Y-103521447D03*
X116033245Y-102044625D03*
D15*
X176215000Y-56565000D03*
X187765000Y-58765000D03*
D14*
X183490000Y-118115000D03*
X183490000Y-121415000D03*
D12*
X181140000Y-66515000D03*
X177840000Y-66515000D03*
D17*
X144247213Y-63420844D03*
X140951735Y-63593552D03*
D10*
X94170000Y-57095000D03*
X94170000Y-59635000D03*
X94170000Y-62175000D03*
X94170000Y-64715000D03*
X94170000Y-67255000D03*
X94170000Y-69795000D03*
X94170000Y-72335000D03*
X109410000Y-72335000D03*
X109410000Y-69795000D03*
X109410000Y-67255000D03*
X109410000Y-64715000D03*
X109410000Y-62175000D03*
X109410000Y-59635000D03*
X109410000Y-57095000D03*
D18*
X100520000Y-56143000D03*
X103060000Y-56143000D03*
X100520000Y-58683000D03*
X103060000Y-58683000D03*
X97345000Y-64398000D03*
X97345000Y-62493000D03*
D17*
X145163093Y-80896861D03*
X141867615Y-81069569D03*
D19*
X156040000Y-123040000D03*
X158240000Y-111490000D03*
D16*
X106719579Y-94819062D03*
X103581093Y-95838818D03*
D15*
X158715000Y-74065000D03*
X170265000Y-76265000D03*
D13*
X118547335Y-64459667D03*
X130291112Y-65030807D03*
D12*
X163640000Y-66515000D03*
X160340000Y-66515000D03*
D20*
X191890000Y-65815000D03*
X196090000Y-57315000D03*
X196090000Y-60315000D03*
X196090000Y-64315000D03*
D16*
X112127377Y-111462551D03*
X108988891Y-112482307D03*
D12*
X181140000Y-101515000D03*
X177840000Y-101515000D03*
D11*
X98960907Y-86877957D03*
X110625447Y-85401135D03*
D15*
X176215000Y-74065000D03*
X187765000Y-76265000D03*
D12*
X163640000Y-84015000D03*
X160340000Y-84015000D03*
D21*
X129680236Y-108286789D03*
X126412352Y-108746061D03*
D22*
X138808220Y-53742235D03*
X150457531Y-55334739D03*
D21*
X124809177Y-73627406D03*
X121541293Y-74086678D03*
X127244707Y-90957098D03*
X123976823Y-91416370D03*
D19*
X173540000Y-123040000D03*
X175740000Y-111490000D03*
D22*
X140639978Y-88694269D03*
X152289289Y-90286773D03*
D14*
X165990000Y-118115000D03*
X165990000Y-121415000D03*
D17*
X146078972Y-98372878D03*
X142783494Y-98545586D03*
D19*
X191040000Y-125415000D03*
X193240000Y-113865000D03*
D15*
X158715000Y-56565000D03*
X170265000Y-58765000D03*
D22*
X139724099Y-71218252D03*
X151373410Y-72810756D03*
D15*
X176215000Y-91565000D03*
X187765000Y-93765000D03*
D23*
X187765000Y-67975000D03*
X170265000Y-68665000D03*
X151185186Y-69075000D03*
X133490410Y-87795000D03*
X114983876Y-98815000D03*
X103581093Y-95838818D03*
X160340000Y-66515000D03*
X128371020Y-80926020D03*
X177840000Y-66515000D03*
X142782040Y-66515000D03*
X160340000Y-84015000D03*
X130813630Y-98248630D03*
X177840000Y-84015000D03*
X108988891Y-112482307D03*
X145047260Y-84015000D03*
X160340000Y-101515000D03*
X134877239Y-117210948D03*
X114396688Y-129125796D03*
X177840000Y-101515000D03*
X148225948Y-103980948D03*
X183490000Y-121415000D03*
X165990000Y-121415000D03*
X200990000Y-123790000D03*
X103295735Y-71090735D03*
X96422811Y-72335000D03*
X116365000Y-57570000D03*
X119365000Y-57570000D03*
D24*
X187765000Y-67975000D02*
X187765000Y-93765000D01*
X187765000Y-58765000D02*
X187765000Y-67975000D01*
X187765000Y-93765000D02*
X187765000Y-108390000D01*
X187765000Y-108390000D02*
X193240000Y-113865000D01*
X170265000Y-68665000D02*
X170265000Y-106015000D01*
X170265000Y-106015000D02*
X175740000Y-111490000D01*
X170265000Y-58765000D02*
X170265000Y-68665000D01*
X150457531Y-55334739D02*
X151185186Y-69075000D01*
X151185186Y-69075000D02*
X153162500Y-106412500D01*
X158240000Y-111490000D02*
X153162500Y-106412500D01*
X130291112Y-65030807D02*
X133490410Y-87795000D01*
X133490410Y-87795000D02*
X135162170Y-99690189D01*
X114983876Y-98815000D02*
X121441042Y-118688114D01*
X110625447Y-85401135D02*
X114983876Y-98815000D01*
X140951735Y-64684695D02*
X142782040Y-66515000D01*
X103581093Y-95838818D02*
X96780000Y-89037725D01*
X121541293Y-74096293D02*
X128371020Y-80926020D01*
X96780000Y-89037725D02*
X96780000Y-79586372D01*
X96780000Y-79586372D02*
X106571372Y-69795000D01*
X140951735Y-63593552D02*
X140951735Y-64684695D01*
X121541293Y-74086678D02*
X121541293Y-74096293D01*
X106571372Y-69795000D02*
X109410000Y-69795000D01*
X141867615Y-81069569D02*
X142101829Y-81069569D01*
X142101829Y-81069569D02*
X145047260Y-84015000D01*
X96380000Y-99873416D02*
X96380000Y-79420686D01*
X96380000Y-79420686D02*
X108545686Y-67255000D01*
X130809083Y-98248630D02*
X130813630Y-98248630D01*
X108545686Y-67255000D02*
X109410000Y-67255000D01*
X108988891Y-112482307D02*
X96380000Y-99873416D01*
X123976823Y-91416370D02*
X130809083Y-98248630D01*
X95980000Y-118689314D02*
X95980000Y-79255000D01*
X106620000Y-67505000D02*
X109410000Y-64715000D01*
X106620000Y-68615000D02*
X106620000Y-67505000D01*
X113577484Y-129945000D02*
X107235686Y-129945000D01*
X142790586Y-98545586D02*
X148225948Y-103980948D01*
X107235686Y-129945000D02*
X95980000Y-118689314D01*
X95980000Y-79255000D02*
X106620000Y-68615000D01*
X114396688Y-129125796D02*
X113577484Y-129945000D01*
X126412352Y-108746061D02*
X134877239Y-117210948D01*
X142783494Y-98545586D02*
X142790586Y-98545586D01*
X165990000Y-121415000D02*
X165990000Y-123025000D01*
X95580000Y-118855000D02*
X95580000Y-71205000D01*
X165990000Y-123025000D02*
X158670000Y-130345000D01*
X95580000Y-71205000D02*
X94170000Y-69795000D01*
X158670000Y-130345000D02*
X107070000Y-130345000D01*
X107070000Y-130345000D02*
X95580000Y-118855000D01*
X180570356Y-66515000D02*
X181140000Y-66515000D01*
X176215000Y-56565000D02*
X176215000Y-62159644D01*
X176215000Y-62159644D02*
X180570356Y-66515000D01*
X180570356Y-84015000D02*
X181140000Y-84015000D01*
X176215000Y-74065000D02*
X176215000Y-79659644D01*
X176215000Y-79659644D02*
X180570356Y-84015000D01*
X176215000Y-91565000D02*
X176215000Y-97159644D01*
X176215000Y-97159644D02*
X180570356Y-101515000D01*
X180570356Y-101515000D02*
X181140000Y-101515000D01*
X158715000Y-56565000D02*
X158715000Y-62159644D01*
X158715000Y-62159644D02*
X163070356Y-66515000D01*
X163070356Y-66515000D02*
X163640000Y-66515000D01*
X163070356Y-84015000D02*
X163640000Y-84015000D01*
X158715000Y-74065000D02*
X158715000Y-79659644D01*
X158715000Y-79659644D02*
X163070356Y-84015000D01*
X158715000Y-91565000D02*
X158715000Y-97159644D01*
X158715000Y-97159644D02*
X163070356Y-101515000D01*
X163070356Y-101515000D02*
X163640000Y-101515000D01*
X138808220Y-53742235D02*
X138808220Y-58850413D01*
X138808220Y-58850413D02*
X143378651Y-63420844D01*
X143378651Y-63420844D02*
X144247213Y-63420844D01*
X144294530Y-80896861D02*
X145163093Y-80896861D01*
X139724099Y-71218252D02*
X139724099Y-76326430D01*
X139724099Y-76326430D02*
X144294530Y-80896861D01*
X140639978Y-93802447D02*
X145210409Y-98372878D01*
X140639978Y-88694269D02*
X140639978Y-93802447D01*
X145210409Y-98372878D02*
X146078972Y-98372878D01*
X123430335Y-73627406D02*
X124809177Y-73627406D01*
X118547335Y-68744406D02*
X123430335Y-73627406D01*
X118547335Y-64459667D02*
X118547335Y-68744406D01*
X120982864Y-81789358D02*
X120982864Y-86074097D01*
X125865865Y-90957098D02*
X127244707Y-90957098D01*
X120982864Y-86074097D02*
X125865865Y-90957098D01*
X128301394Y-108286789D02*
X129680236Y-108286789D01*
X123418393Y-103403788D02*
X128301394Y-108286789D01*
X123418393Y-99119049D02*
X123418393Y-103403788D01*
X98960907Y-89490996D02*
X104288973Y-94819062D01*
X98960907Y-86877957D02*
X98960907Y-89490996D01*
X104288973Y-94819062D02*
X106719579Y-94819062D01*
X104368705Y-106134486D02*
X109696770Y-111462551D01*
X109696770Y-111462551D02*
X112127377Y-111462551D01*
X104368705Y-103521447D02*
X104368705Y-106134486D01*
X109776502Y-120164936D02*
X109776502Y-122777975D01*
X115104567Y-128106040D02*
X117535174Y-128106040D01*
X109776502Y-122777975D02*
X115104567Y-128106040D01*
X161634644Y-123040000D02*
X165990000Y-118684644D01*
X165990000Y-118684644D02*
X165990000Y-118115000D01*
X156040000Y-123040000D02*
X161634644Y-123040000D01*
X179134644Y-123040000D02*
X183490000Y-118684644D01*
X183490000Y-118684644D02*
X183490000Y-118115000D01*
X173540000Y-123040000D02*
X179134644Y-123040000D01*
X191040000Y-125415000D02*
X196634644Y-125415000D01*
X196634644Y-125415000D02*
X200990000Y-121059644D01*
X200990000Y-121059644D02*
X200990000Y-120490000D01*
X103295735Y-71373579D02*
X102334314Y-72335000D01*
X102334314Y-72335000D02*
X96422811Y-72335000D01*
X103295735Y-71090735D02*
X103295735Y-71373579D01*
X110868000Y-61113000D02*
X98054272Y-61113000D01*
X128990000Y-121715000D02*
X124684026Y-121715000D01*
X124684026Y-121715000D02*
X113164155Y-86395000D01*
X113118663Y-63363663D02*
X110868000Y-61113000D01*
X113118663Y-86349508D02*
X113118663Y-63363663D01*
X113164155Y-86395000D02*
X113118663Y-86349508D01*
X98054272Y-61113000D02*
X97176800Y-61990472D01*
X113238000Y-60697000D02*
X97448000Y-60697000D01*
X97448000Y-60697000D02*
X96150000Y-61995000D01*
X96503466Y-64618466D02*
X97149083Y-64618466D01*
X116365000Y-57570000D02*
X113238000Y-60697000D01*
X96150000Y-61995000D02*
X96150000Y-64265000D01*
X96150000Y-64265000D02*
X96503466Y-64618466D01*
X128990000Y-118315000D02*
X124046467Y-118315000D01*
X124046467Y-118315000D02*
X113550329Y-86155000D01*
X113550329Y-63384671D02*
X113550329Y-86155000D01*
X119365000Y-57570000D02*
X113550329Y-63384671D01*
M02*
