M48
; DRILL file {KiCad 8.0.7} date 2024-12-21T19:43:31+0100
; FORMAT={-:-/ absolute / metric / decimal}
; #@! TF.CreationDate,2024-12-21T19:43:31+01:00
; #@! TF.GenerationSoftware,Kicad,Pcbnew,8.0.7
; #@! TF.FileFunction,Plated,1,2,PTH
FMAT,2
METRIC
; #@! TA.AperFunction,Plated,PTH,ViaDrill
T1C0.300
; #@! TA.AperFunction,Plated,PTH,ComponentDrill
T2C0.889
; #@! TA.AperFunction,Plated,PTH,ComponentDrill
T3C1.000
; #@! TA.AperFunction,Plated,PTH,ComponentDrill
T4C1.016
%
G90
G05
T1
X96.423Y-72.335
X103.296Y-71.091
X103.581Y-95.839
X108.989Y-112.482
X114.397Y-129.126
X114.984Y-98.815
X116.365Y-57.57
X119.365Y-57.57
X128.371Y-80.926
X130.814Y-98.249
X133.49Y-87.795
X134.877Y-117.211
X142.782Y-66.515
X145.047Y-84.015
X148.226Y-103.981
X151.185Y-69.075
X160.34Y-66.515
X160.34Y-84.015
X160.34Y-101.515
X165.99Y-121.415
X170.265Y-68.665
X177.84Y-66.515
X177.84Y-84.015
X177.84Y-101.515
X183.49Y-121.415
X187.765Y-67.975
X200.99Y-123.79
T2
X94.17Y-57.095
X94.17Y-59.635
X94.17Y-62.175
X94.17Y-64.715
X94.17Y-67.255
X94.17Y-69.795
X94.17Y-72.335
X109.41Y-57.095
X109.41Y-59.635
X109.41Y-62.175
X109.41Y-64.715
X109.41Y-67.255
X109.41Y-69.795
X109.41Y-72.335
X128.99Y-118.315
X128.99Y-121.715
T4
X97.345Y-62.493
X97.345Y-64.398
X100.52Y-56.143
X100.52Y-58.683
X103.06Y-56.143
X103.06Y-58.683
T3
X191.89Y-65.565G85X191.89Y-66.065
G05
X196.09Y-57.065G85X196.09Y-57.565
G05
X196.09Y-60.065G85X196.09Y-60.565
G05
X196.09Y-64.065G85X196.09Y-64.565
G05
M30
